<svg xmlns="http://www.w3.org/2000/svg" width="365" height="115" viewBox="0 0 365 115">
<g fill-rule="evenodd">
<path d="M 286 61 L 285 62 L 284 62 L 284 63 L 285 64 L 285 65 L 286 65 L 287 65 L 288 65 L 289 65 L 290 65 L 291 65 L 292 65 L 293 65 L 294 65 L 295 65 L 296 65 L 297 65 L 298 65 L 299 65 L 300 65 L 301 65 L 302 65 L 303 65 L 304 65 L 305 65 L 306 65 L 307 65 L 308 65 L 309 65 L 310 65 L 311 65 L 312 65 L 313 65 L 314 65 L 315 65 L 316 65 L 317 65 L 318 65 L 319 65 L 320 65 L 321 65 L 322 65 L 323 65 L 324 65 L 325 65 L 326 65 L 327 65 L 328 65 L 329 65 L 330 65 L 331 65 L 332 65 L 333 65 L 333 64 L 333 63 L 333 62 L 333 61 L 332 61 L 331 61 L 330 61 L 329 61 L 328 61 L 327 61 L 326 61 L 325 61 L 324 61 L 323 61 L 322 61 L 321 61 L 320 61 L 319 61 L 318 61 L 317 61 L 316 61 L 315 61 L 314 61 L 313 61 L 312 61 L 311 61 L 310 61 L 309 61 L 308 61 L 307 61 L 306 61 L 305 61 L 304 61 L 303 61 L 302 61 L 301 61 L 300 61 L 299 61 L 298 61 L 297 61 L 296 61 L 295 61 L 294 61 L 293 61 L 292 61 L 291 61 L 290 61 L 289 61 L 288 61 L 287 61 Z M 115 61 L 114 62 L 113 62 L 113 63 L 114 64 L 115 65 L 116 65 L 117 65 L 118 65 L 119 65 L 120 65 L 121 65 L 122 65 L 123 65 L 124 65 L 125 65 L 126 65 L 127 65 L 128 65 L 129 65 L 130 65 L 131 65 L 132 65 L 133 65 L 134 65 L 135 65 L 136 65 L 137 65 L 138 65 L 139 65 L 140 65 L 141 65 L 142 65 L 143 65 L 144 65 L 145 65 L 146 65 L 147 65 L 148 65 L 149 65 L 150 65 L 151 65 L 152 65 L 153 65 L 154 65 L 155 65 L 156 65 L 157 65 L 158 65 L 159 64 L 159 63 L 159 62 L 158 61 L 157 61 L 156 61 L 155 61 L 154 61 L 153 61 L 152 61 L 151 61 L 150 61 L 149 61 L 148 61 L 147 61 L 146 61 L 145 61 L 144 61 L 143 61 L 142 61 L 141 61 L 140 61 L 139 61 L 138 61 L 137 61 L 136 61 L 135 61 L 134 61 L 133 61 L 132 61 L 131 61 L 130 61 L 129 61 L 128 61 L 127 61 L 126 61 L 125 61 L 124 61 L 123 61 L 122 61 L 121 61 L 120 61 L 119 61 L 118 61 L 117 61 L 116 61 Z M 17 60 L 17 61 L 17 62 L 17 63 L 17 64 L 17 65 L 17 66 L 17 67 L 17 68 L 17 69 L 17 70 L 17 71 L 17 72 L 17 73 L 17 74 L 17 75 L 17 76 L 18 77 L 19 77 L 20 78 L 21 78 L 22 79 L 23 79 L 24 80 L 25 80 L 26 81 L 27 81 L 28 82 L 28 83 L 29 84 L 30 84 L 31 84 L 32 84 L 33 84 L 34 84 L 35 83 L 36 83 L 37 82 L 37 81 L 37 80 L 36 80 L 35 79 L 34 79 L 33 78 L 32 78 L 31 77 L 30 77 L 29 76 L 28 76 L 27 75 L 26 75 L 25 74 L 24 73 L 24 72 L 23 71 L 23 70 L 23 69 L 24 68 L 24 67 L 24 66 L 24 65 L 24 64 L 24 63 L 23 62 L 22 61 L 21 61 L 20 60 L 19 60 L 18 60 Z M 268 57 L 267 58 L 266 58 L 265 58 L 264 58 L 263 58 L 262 58 L 261 58 L 260 58 L 259 58 L 259 59 L 259 60 L 259 61 L 259 62 L 260 63 L 260 64 L 259 65 L 259 66 L 259 67 L 259 68 L 259 69 L 259 70 L 259 71 L 259 72 L 259 73 L 260 74 L 260 75 L 261 75 L 262 75 L 263 75 L 264 75 L 265 75 L 266 75 L 267 75 L 268 75 L 269 75 L 270 75 L 271 75 L 272 75 L 273 75 L 274 75 L 275 75 L 276 75 L 276 74 L 276 73 L 276 72 L 276 71 L 275 71 L 274 71 L 273 71 L 272 71 L 271 71 L 270 71 L 269 71 L 268 71 L 267 71 L 266 71 L 265 70 L 265 69 L 265 68 L 266 67 L 267 67 L 268 67 L 269 67 L 270 67 L 271 67 L 272 67 L 273 67 L 274 67 L 275 67 L 275 66 L 275 65 L 275 64 L 275 63 L 275 62 L 276 61 L 277 61 L 277 60 L 277 59 L 277 58 L 276 58 L 275 57 L 274 57 L 273 57 L 272 57 L 271 57 L 270 57 L 269 57 Z M 214 57 L 214 58 L 214 59 L 214 60 L 213 61 L 213 62 L 214 63 L 214 64 L 214 65 L 214 66 L 214 67 L 214 68 L 214 69 L 214 70 L 214 71 L 214 72 L 214 73 L 214 74 L 214 75 L 215 75 L 216 75 L 217 75 L 218 75 L 219 74 L 220 73 L 220 72 L 220 71 L 221 70 L 222 70 L 223 71 L 224 72 L 224 73 L 225 73 L 226 73 L 227 74 L 227 75 L 228 75 L 229 75 L 230 75 L 231 75 L 232 75 L 233 75 L 233 74 L 232 73 L 231 72 L 231 71 L 231 70 L 231 69 L 232 68 L 232 67 L 232 66 L 233 65 L 234 65 L 235 66 L 235 67 L 235 68 L 235 69 L 235 70 L 235 71 L 236 72 L 236 73 L 237 73 L 238 74 L 239 75 L 240 75 L 241 75 L 242 75 L 243 75 L 244 75 L 245 75 L 246 75 L 247 75 L 248 75 L 249 75 L 250 75 L 251 75 L 252 75 L 253 75 L 254 75 L 255 75 L 255 74 L 255 73 L 255 72 L 255 71 L 255 70 L 255 69 L 255 68 L 256 67 L 256 66 L 256 65 L 255 64 L 255 63 L 255 62 L 256 61 L 256 60 L 256 59 L 256 58 L 255 58 L 254 57 L 253 57 L 252 57 L 251 57 L 250 57 L 249 57 L 248 57 L 247 57 L 246 57 L 245 57 L 244 57 L 243 57 L 242 57 L 241 57 L 240 57 L 239 57 L 238 58 L 238 59 L 237 60 L 236 61 L 235 61 L 234 62 L 233 62 L 232 61 L 232 60 L 231 59 L 231 58 L 230 57 L 229 57 L 228 57 L 227 57 L 226 57 L 225 57 L 224 57 L 223 57 L 222 57 L 221 57 L 220 57 L 219 57 L 218 57 L 217 57 L 216 57 L 215 57 Z M 220 63 L 221 62 L 222 62 L 223 62 L 224 62 L 225 62 L 226 63 L 226 64 L 226 65 L 225 66 L 224 66 L 223 66 L 222 66 L 221 66 L 220 65 L 220 64 Z M 191 57 L 191 58 L 190 59 L 189 59 L 189 60 L 188 61 L 188 62 L 187 63 L 187 64 L 187 65 L 187 66 L 187 67 L 187 68 L 187 69 L 187 70 L 188 70 L 189 71 L 189 72 L 189 73 L 190 73 L 191 73 L 192 74 L 192 75 L 193 75 L 194 75 L 195 75 L 196 75 L 197 75 L 198 75 L 199 75 L 200 75 L 201 75 L 202 75 L 203 75 L 204 75 L 205 75 L 206 75 L 206 74 L 207 73 L 208 73 L 209 73 L 209 72 L 209 71 L 209 70 L 210 69 L 210 68 L 210 67 L 210 66 L 209 65 L 209 64 L 209 63 L 209 62 L 209 61 L 209 60 L 208 59 L 208 58 L 207 57 L 206 57 L 205 57 L 204 58 L 203 58 L 202 58 L 201 58 L 200 58 L 199 58 L 198 58 L 197 58 L 196 58 L 195 58 L 194 57 L 193 57 L 192 57 Z M 195 63 L 196 62 L 197 62 L 198 62 L 199 62 L 200 62 L 201 62 L 202 62 L 203 63 L 203 64 L 203 65 L 203 66 L 203 67 L 203 68 L 202 69 L 202 70 L 201 71 L 200 71 L 199 71 L 198 71 L 197 71 L 196 71 L 195 70 L 195 69 L 195 68 L 195 67 L 195 66 L 195 65 L 195 64 Z M 169 57 L 169 58 L 169 59 L 169 60 L 169 61 L 169 62 L 169 63 L 169 64 L 169 65 L 169 66 L 169 67 L 169 68 L 169 69 L 169 70 L 169 71 L 169 72 L 169 73 L 169 74 L 169 75 L 170 75 L 171 75 L 172 75 L 173 75 L 174 75 L 175 74 L 175 73 L 175 72 L 175 71 L 175 70 L 176 69 L 177 69 L 178 69 L 179 69 L 180 69 L 181 69 L 182 69 L 183 69 L 184 68 L 184 67 L 184 66 L 184 65 L 184 64 L 184 63 L 184 62 L 185 61 L 186 60 L 186 59 L 186 58 L 185 58 L 184 58 L 183 58 L 182 58 L 181 58 L 180 58 L 179 57 L 178 57 L 177 57 L 176 57 L 175 57 L 174 57 L 173 57 L 172 57 L 171 57 L 170 57 Z M 18 49 L 17 50 L 17 51 L 17 52 L 17 53 L 17 54 L 18 55 L 18 56 L 19 56 L 20 57 L 21 57 L 22 57 L 23 57 L 24 57 L 25 58 L 26 58 L 27 59 L 27 60 L 28 60 L 29 61 L 29 62 L 29 63 L 29 64 L 29 65 L 29 66 L 29 67 L 29 68 L 29 69 L 29 70 L 29 71 L 29 72 L 29 73 L 30 74 L 31 74 L 32 74 L 33 75 L 34 75 L 35 75 L 36 76 L 37 76 L 38 77 L 39 77 L 40 78 L 41 78 L 42 79 L 42 80 L 43 80 L 44 80 L 45 81 L 46 81 L 47 81 L 47 80 L 48 79 L 48 78 L 47 77 L 46 77 L 45 76 L 45 75 L 44 75 L 43 75 L 42 75 L 41 74 L 40 74 L 39 73 L 38 73 L 37 72 L 36 72 L 35 71 L 34 71 L 33 70 L 32 69 L 32 68 L 32 67 L 32 66 L 32 65 L 32 64 L 32 63 L 32 62 L 32 61 L 32 60 L 32 59 L 32 58 L 32 57 L 32 56 L 31 56 L 30 55 L 29 55 L 28 54 L 27 54 L 26 53 L 25 53 L 24 52 L 23 52 L 22 51 L 21 51 L 20 50 L 20 49 L 19 49 Z M 37 38 L 37 39 L 38 39 L 38 38 Z M 117 31 L 116 32 L 116 33 L 115 34 L 114 34 L 113 35 L 113 36 L 113 37 L 113 38 L 113 39 L 113 40 L 113 41 L 113 42 L 113 43 L 113 44 L 113 45 L 113 46 L 113 47 L 113 48 L 114 49 L 115 50 L 116 51 L 117 51 L 118 51 L 119 51 L 120 52 L 121 52 L 122 52 L 123 52 L 124 52 L 125 52 L 126 52 L 127 52 L 128 52 L 129 52 L 129 51 L 130 50 L 131 50 L 132 51 L 133 51 L 134 50 L 135 49 L 136 48 L 137 48 L 138 49 L 138 50 L 139 50 L 140 51 L 141 51 L 142 51 L 143 51 L 144 51 L 145 51 L 146 50 L 147 50 L 148 50 L 149 50 L 150 50 L 151 50 L 152 50 L 153 50 L 154 50 L 155 51 L 156 51 L 157 50 L 157 49 L 158 48 L 158 47 L 159 46 L 160 46 L 161 47 L 161 48 L 161 49 L 161 50 L 162 50 L 163 50 L 164 50 L 165 50 L 166 50 L 167 50 L 168 50 L 169 50 L 170 50 L 171 50 L 172 50 L 173 50 L 174 50 L 175 50 L 176 50 L 177 51 L 178 51 L 179 51 L 180 51 L 181 50 L 181 49 L 181 48 L 182 47 L 183 47 L 184 48 L 184 49 L 184 50 L 185 50 L 186 50 L 187 50 L 188 51 L 189 51 L 190 51 L 191 50 L 192 50 L 192 49 L 192 48 L 192 47 L 192 46 L 192 45 L 193 44 L 194 44 L 195 44 L 196 44 L 197 44 L 198 44 L 199 44 L 200 44 L 201 43 L 201 42 L 200 41 L 200 40 L 200 39 L 200 38 L 201 37 L 201 36 L 202 35 L 203 35 L 204 36 L 204 37 L 204 38 L 204 39 L 204 40 L 204 41 L 204 42 L 204 43 L 204 44 L 204 45 L 204 46 L 204 47 L 204 48 L 204 49 L 204 50 L 205 51 L 206 51 L 207 51 L 208 51 L 209 50 L 210 50 L 211 50 L 212 50 L 213 50 L 214 50 L 215 50 L 216 50 L 217 50 L 218 50 L 219 50 L 220 50 L 221 50 L 222 50 L 223 50 L 224 49 L 225 49 L 226 50 L 227 50 L 228 50 L 229 50 L 230 50 L 231 50 L 232 50 L 233 50 L 234 50 L 235 50 L 236 50 L 237 50 L 238 50 L 239 50 L 240 50 L 241 50 L 242 50 L 243 50 L 244 50 L 245 50 L 246 50 L 247 50 L 248 50 L 249 50 L 250 50 L 251 50 L 252 50 L 253 50 L 254 50 L 255 50 L 256 50 L 257 50 L 258 50 L 259 50 L 260 50 L 261 50 L 262 50 L 263 51 L 264 51 L 265 51 L 266 51 L 267 52 L 268 52 L 269 52 L 270 52 L 271 52 L 272 52 L 273 52 L 274 52 L 275 52 L 276 52 L 277 52 L 278 51 L 279 51 L 280 51 L 281 50 L 281 49 L 281 48 L 282 47 L 283 47 L 283 46 L 283 45 L 283 44 L 283 43 L 284 42 L 285 42 L 286 43 L 286 44 L 287 45 L 287 46 L 287 47 L 287 48 L 288 49 L 288 50 L 289 50 L 290 51 L 290 52 L 291 52 L 292 52 L 293 52 L 294 52 L 295 52 L 295 51 L 296 50 L 296 49 L 297 48 L 298 48 L 299 48 L 300 48 L 301 49 L 301 50 L 302 50 L 303 50 L 304 50 L 305 50 L 306 50 L 307 50 L 308 50 L 309 50 L 309 49 L 309 48 L 310 47 L 310 46 L 310 45 L 311 44 L 311 43 L 311 42 L 312 41 L 312 40 L 313 39 L 314 39 L 315 40 L 316 41 L 316 42 L 317 42 L 318 43 L 318 44 L 318 45 L 317 46 L 316 46 L 316 47 L 316 48 L 316 49 L 316 50 L 317 50 L 318 50 L 319 50 L 320 50 L 321 50 L 322 50 L 323 50 L 324 50 L 325 50 L 326 50 L 327 50 L 328 50 L 329 50 L 330 51 L 331 51 L 332 51 L 333 50 L 334 49 L 334 48 L 334 47 L 334 46 L 334 45 L 334 44 L 334 43 L 333 42 L 333 41 L 333 40 L 332 39 L 332 38 L 332 37 L 332 36 L 332 35 L 332 34 L 332 33 L 332 32 L 332 31 L 331 31 L 330 31 L 329 31 L 328 31 L 327 31 L 326 31 L 325 31 L 324 31 L 323 31 L 322 31 L 321 31 L 320 31 L 319 31 L 318 31 L 317 32 L 316 32 L 315 32 L 314 32 L 313 31 L 312 31 L 311 31 L 310 31 L 309 31 L 309 32 L 309 33 L 308 34 L 307 34 L 307 35 L 307 36 L 306 37 L 306 38 L 305 39 L 304 39 L 303 38 L 303 37 L 303 36 L 303 35 L 302 35 L 301 34 L 301 33 L 300 32 L 300 31 L 299 31 L 298 31 L 297 31 L 296 31 L 295 31 L 294 31 L 294 32 L 293 33 L 292 34 L 291 34 L 290 33 L 289 32 L 288 31 L 287 31 L 286 31 L 285 31 L 284 31 L 283 32 L 282 32 L 281 33 L 280 33 L 279 33 L 278 32 L 278 31 L 277 31 L 276 31 L 275 31 L 274 31 L 273 31 L 272 31 L 271 31 L 270 31 L 269 31 L 268 31 L 267 31 L 266 31 L 265 31 L 264 31 L 263 32 L 262 32 L 261 33 L 261 34 L 260 35 L 260 36 L 260 37 L 260 38 L 260 39 L 260 40 L 260 41 L 260 42 L 260 43 L 260 44 L 260 45 L 260 46 L 259 47 L 258 47 L 257 47 L 256 46 L 255 46 L 254 46 L 253 46 L 252 46 L 251 46 L 250 45 L 250 44 L 250 43 L 250 42 L 250 41 L 250 40 L 250 39 L 250 38 L 250 37 L 250 36 L 250 35 L 250 34 L 250 33 L 249 32 L 249 31 L 248 31 L 247 31 L 246 31 L 245 31 L 244 31 L 244 32 L 244 33 L 244 34 L 244 35 L 244 36 L 244 37 L 244 38 L 244 39 L 244 40 L 244 41 L 243 42 L 242 42 L 242 43 L 242 44 L 242 45 L 241 46 L 240 46 L 239 46 L 238 46 L 237 46 L 236 46 L 235 46 L 234 46 L 233 46 L 232 45 L 232 44 L 232 43 L 232 42 L 232 41 L 232 40 L 232 39 L 232 38 L 232 37 L 232 36 L 232 35 L 232 34 L 232 33 L 231 32 L 231 31 L 230 31 L 229 31 L 228 31 L 227 31 L 226 31 L 226 32 L 226 33 L 226 34 L 226 35 L 225 36 L 225 37 L 225 38 L 226 39 L 226 40 L 226 41 L 226 42 L 226 43 L 225 44 L 225 45 L 225 46 L 224 47 L 223 47 L 222 47 L 221 47 L 220 46 L 220 45 L 220 44 L 220 43 L 220 42 L 220 41 L 220 40 L 220 39 L 220 38 L 221 37 L 222 36 L 223 35 L 223 34 L 223 33 L 223 32 L 222 32 L 221 31 L 220 31 L 219 31 L 218 31 L 217 31 L 216 31 L 215 31 L 214 31 L 213 31 L 212 31 L 211 31 L 210 31 L 209 31 L 208 31 L 207 31 L 206 31 L 205 31 L 204 32 L 203 32 L 202 32 L 201 31 L 200 31 L 199 31 L 198 31 L 197 31 L 196 31 L 195 31 L 194 31 L 193 31 L 192 31 L 191 31 L 190 31 L 189 31 L 188 31 L 187 31 L 186 31 L 185 32 L 184 32 L 184 33 L 183 34 L 182 34 L 181 33 L 180 33 L 179 33 L 178 32 L 178 31 L 177 31 L 176 31 L 175 31 L 174 31 L 173 31 L 172 31 L 171 31 L 170 31 L 169 31 L 168 31 L 167 31 L 166 31 L 165 31 L 164 31 L 163 31 L 162 31 L 161 32 L 161 33 L 160 34 L 159 34 L 158 33 L 157 32 L 156 32 L 155 31 L 154 31 L 153 31 L 152 31 L 151 31 L 150 31 L 149 31 L 148 31 L 147 31 L 146 31 L 145 31 L 144 31 L 143 31 L 142 31 L 141 31 L 140 31 L 139 31 L 138 32 L 138 33 L 138 34 L 139 35 L 139 36 L 139 37 L 139 38 L 139 39 L 139 40 L 139 41 L 139 42 L 138 43 L 137 43 L 136 42 L 136 41 L 136 40 L 136 39 L 136 38 L 136 37 L 136 36 L 136 35 L 135 35 L 134 34 L 134 33 L 134 32 L 133 32 L 132 31 L 131 31 L 130 31 L 129 31 L 128 31 L 127 31 L 126 31 L 125 31 L 124 31 L 123 31 L 122 31 L 121 31 L 120 31 L 119 31 L 118 31 Z M 268 38 L 269 37 L 270 37 L 271 37 L 272 37 L 273 37 L 274 37 L 275 38 L 275 39 L 275 40 L 275 41 L 275 42 L 275 43 L 275 44 L 275 45 L 274 46 L 273 46 L 272 46 L 271 46 L 270 46 L 269 46 L 268 45 L 268 44 L 268 43 L 268 42 L 268 41 L 268 40 L 268 39 Z M 169 38 L 170 37 L 171 37 L 172 37 L 173 37 L 174 37 L 175 38 L 175 39 L 175 40 L 175 41 L 175 42 L 175 43 L 175 44 L 175 45 L 174 46 L 173 46 L 172 46 L 171 47 L 170 47 L 169 46 L 169 45 L 169 44 L 169 43 L 169 42 L 169 41 L 169 40 L 169 39 Z M 145 38 L 146 37 L 147 37 L 148 37 L 149 37 L 150 37 L 151 37 L 152 38 L 152 39 L 152 40 L 152 41 L 152 42 L 152 43 L 152 44 L 152 45 L 152 46 L 151 47 L 150 47 L 149 47 L 148 47 L 147 47 L 146 47 L 145 47 L 144 46 L 144 45 L 144 44 L 145 43 L 145 42 L 145 41 L 145 40 L 145 39 Z M 120 38 L 121 37 L 122 37 L 123 37 L 124 37 L 125 37 L 126 37 L 127 37 L 128 37 L 129 37 L 130 38 L 130 39 L 130 40 L 130 41 L 130 42 L 130 43 L 130 44 L 130 45 L 129 46 L 128 46 L 127 46 L 126 46 L 125 46 L 124 46 L 123 47 L 122 47 L 121 46 L 121 45 L 121 44 L 121 43 L 121 42 L 121 41 L 120 40 L 120 39 Z M 291 35 L 292 34 L 293 34 L 294 35 L 294 36 L 293 37 L 292 37 L 291 36 Z M 19 27 L 18 28 L 17 28 L 17 29 L 17 30 L 17 31 L 17 32 L 17 33 L 17 34 L 17 35 L 17 36 L 17 37 L 17 38 L 17 39 L 17 40 L 17 41 L 17 42 L 17 43 L 18 44 L 19 44 L 20 45 L 21 45 L 22 46 L 23 46 L 24 47 L 25 47 L 26 48 L 26 49 L 27 49 L 28 50 L 29 50 L 30 51 L 31 51 L 32 52 L 33 52 L 34 52 L 35 52 L 36 53 L 37 53 L 38 54 L 39 54 L 40 55 L 41 55 L 42 56 L 42 57 L 42 58 L 41 59 L 40 59 L 39 59 L 38 59 L 38 60 L 37 61 L 36 61 L 36 62 L 36 63 L 36 64 L 36 65 L 36 66 L 37 67 L 38 67 L 39 67 L 40 68 L 40 69 L 41 70 L 42 70 L 43 71 L 44 71 L 45 71 L 46 71 L 47 72 L 48 72 L 49 73 L 50 73 L 51 74 L 51 75 L 51 76 L 51 77 L 51 78 L 51 79 L 51 80 L 51 81 L 51 82 L 51 83 L 51 84 L 51 85 L 51 86 L 50 87 L 49 87 L 48 86 L 47 86 L 46 86 L 45 86 L 44 85 L 43 85 L 42 85 L 41 85 L 40 85 L 39 85 L 39 86 L 39 87 L 39 88 L 39 89 L 40 89 L 41 90 L 42 90 L 43 91 L 44 91 L 45 92 L 46 93 L 47 93 L 48 93 L 49 93 L 50 93 L 51 94 L 52 94 L 53 95 L 53 96 L 54 96 L 55 97 L 56 97 L 57 97 L 58 96 L 58 95 L 58 94 L 58 93 L 58 92 L 58 91 L 58 90 L 58 89 L 58 88 L 58 87 L 58 86 L 58 85 L 58 84 L 58 83 L 58 82 L 58 81 L 58 80 L 58 79 L 58 78 L 58 77 L 58 76 L 58 75 L 58 74 L 58 73 L 58 72 L 57 72 L 56 72 L 55 71 L 54 71 L 53 70 L 53 69 L 52 68 L 51 68 L 50 68 L 49 68 L 48 67 L 47 67 L 46 66 L 45 65 L 45 64 L 45 63 L 45 62 L 45 61 L 45 60 L 45 59 L 46 58 L 47 58 L 48 59 L 48 60 L 49 60 L 50 59 L 50 58 L 50 57 L 50 56 L 50 55 L 49 55 L 48 54 L 47 54 L 46 53 L 45 53 L 44 52 L 44 51 L 43 51 L 42 50 L 41 49 L 40 49 L 39 48 L 38 48 L 37 47 L 36 46 L 35 46 L 34 45 L 33 45 L 32 45 L 31 44 L 31 43 L 32 42 L 33 42 L 33 41 L 33 40 L 33 39 L 33 38 L 33 37 L 33 36 L 33 35 L 33 34 L 33 33 L 34 32 L 35 32 L 36 33 L 36 34 L 37 34 L 38 34 L 39 34 L 40 34 L 41 34 L 42 34 L 43 34 L 44 34 L 45 34 L 46 34 L 47 34 L 48 34 L 49 34 L 50 34 L 51 34 L 52 34 L 53 34 L 54 34 L 55 34 L 56 34 L 57 34 L 58 34 L 59 34 L 60 34 L 61 34 L 62 34 L 63 34 L 64 34 L 65 34 L 66 34 L 67 34 L 68 34 L 69 34 L 70 34 L 71 34 L 72 34 L 73 34 L 74 34 L 75 34 L 76 34 L 77 34 L 78 34 L 79 34 L 80 34 L 81 34 L 82 34 L 83 34 L 84 34 L 85 34 L 86 34 L 87 35 L 87 36 L 87 37 L 87 38 L 87 39 L 87 40 L 87 41 L 88 41 L 89 41 L 90 41 L 91 42 L 91 43 L 90 44 L 89 44 L 88 45 L 87 45 L 86 46 L 85 46 L 84 47 L 83 47 L 82 48 L 81 48 L 80 49 L 79 49 L 78 50 L 77 50 L 76 51 L 75 51 L 74 52 L 73 52 L 72 53 L 71 53 L 70 54 L 69 54 L 68 55 L 68 56 L 68 57 L 68 58 L 68 59 L 69 60 L 70 60 L 71 59 L 72 59 L 73 59 L 74 59 L 75 58 L 76 58 L 77 58 L 78 59 L 78 60 L 77 61 L 76 62 L 75 62 L 75 63 L 74 64 L 73 65 L 72 65 L 71 66 L 71 67 L 70 68 L 69 68 L 68 68 L 67 68 L 66 69 L 66 70 L 65 71 L 64 71 L 63 72 L 62 72 L 62 73 L 62 74 L 62 75 L 62 76 L 62 77 L 62 78 L 62 79 L 62 80 L 62 81 L 62 82 L 62 83 L 62 84 L 62 85 L 62 86 L 62 87 L 62 88 L 62 89 L 62 90 L 62 91 L 62 92 L 62 93 L 62 94 L 62 95 L 62 96 L 63 96 L 64 96 L 65 96 L 66 96 L 67 96 L 68 95 L 69 95 L 70 94 L 71 94 L 72 93 L 73 93 L 74 92 L 75 92 L 76 91 L 77 91 L 78 90 L 79 90 L 80 89 L 81 89 L 81 88 L 81 87 L 80 86 L 80 85 L 79 84 L 78 84 L 77 84 L 76 84 L 75 84 L 74 85 L 73 86 L 72 86 L 71 86 L 70 86 L 69 85 L 69 84 L 69 83 L 69 82 L 70 81 L 71 81 L 72 81 L 73 82 L 74 82 L 74 81 L 75 80 L 76 80 L 77 80 L 78 80 L 79 79 L 79 78 L 80 77 L 81 77 L 82 77 L 83 77 L 84 76 L 84 75 L 85 74 L 86 74 L 87 74 L 88 74 L 89 74 L 90 73 L 91 73 L 92 72 L 92 71 L 91 70 L 91 69 L 91 68 L 91 67 L 91 66 L 91 65 L 91 64 L 91 63 L 91 62 L 92 61 L 92 60 L 92 59 L 93 58 L 94 58 L 95 58 L 96 59 L 96 60 L 96 61 L 97 62 L 97 63 L 97 64 L 97 65 L 97 66 L 97 67 L 97 68 L 97 69 L 97 70 L 97 71 L 97 72 L 97 73 L 97 74 L 96 75 L 95 75 L 94 76 L 93 76 L 92 77 L 91 77 L 90 77 L 89 77 L 88 77 L 87 78 L 86 78 L 85 79 L 84 79 L 83 80 L 82 80 L 82 81 L 82 82 L 83 82 L 84 83 L 85 83 L 86 84 L 87 85 L 88 85 L 89 84 L 90 84 L 91 83 L 92 83 L 93 82 L 94 82 L 95 81 L 95 80 L 96 79 L 97 79 L 98 78 L 99 78 L 100 77 L 101 77 L 102 76 L 103 76 L 103 75 L 103 74 L 103 73 L 103 72 L 103 71 L 103 70 L 103 69 L 103 68 L 103 67 L 103 66 L 103 65 L 103 64 L 103 63 L 103 62 L 103 61 L 103 60 L 102 59 L 101 59 L 100 60 L 99 60 L 98 60 L 97 59 L 97 58 L 98 57 L 99 57 L 100 56 L 100 55 L 101 54 L 102 54 L 102 53 L 102 52 L 103 51 L 103 50 L 102 49 L 101 49 L 100 50 L 99 50 L 98 50 L 97 50 L 96 51 L 95 51 L 94 52 L 93 52 L 92 53 L 92 54 L 91 55 L 90 55 L 89 56 L 88 56 L 88 57 L 88 58 L 88 59 L 88 60 L 88 61 L 88 62 L 88 63 L 88 64 L 88 65 L 88 66 L 88 67 L 88 68 L 88 69 L 87 70 L 86 70 L 85 70 L 84 70 L 83 71 L 82 71 L 81 72 L 80 72 L 79 73 L 78 74 L 77 74 L 76 74 L 75 75 L 74 76 L 73 76 L 73 77 L 72 78 L 71 78 L 70 78 L 69 77 L 69 76 L 69 75 L 70 74 L 71 74 L 72 73 L 73 73 L 74 72 L 74 71 L 75 70 L 76 70 L 77 70 L 78 70 L 79 70 L 80 69 L 81 68 L 82 68 L 82 67 L 82 66 L 82 65 L 82 64 L 82 63 L 82 62 L 82 61 L 82 60 L 82 59 L 82 58 L 81 58 L 80 59 L 79 59 L 78 58 L 78 57 L 79 56 L 80 56 L 81 55 L 82 55 L 83 54 L 84 54 L 85 53 L 86 53 L 87 52 L 88 52 L 89 51 L 90 51 L 91 50 L 92 50 L 93 49 L 94 49 L 95 48 L 96 47 L 97 47 L 98 46 L 99 46 L 99 45 L 100 44 L 101 44 L 102 44 L 103 43 L 103 42 L 103 41 L 103 40 L 103 39 L 103 38 L 103 37 L 103 36 L 103 35 L 103 34 L 103 33 L 103 32 L 103 31 L 103 30 L 103 29 L 102 28 L 102 27 L 101 27 L 100 27 L 99 27 L 98 27 L 97 27 L 97 28 L 97 29 L 97 30 L 97 31 L 97 32 L 97 33 L 97 34 L 97 35 L 97 36 L 97 37 L 97 38 L 97 39 L 97 40 L 97 41 L 96 42 L 95 42 L 94 42 L 93 42 L 92 41 L 92 40 L 92 39 L 92 38 L 92 37 L 92 36 L 92 35 L 92 34 L 92 33 L 92 32 L 92 31 L 92 30 L 92 29 L 91 28 L 91 27 L 90 27 L 89 27 L 88 27 L 87 27 L 86 27 L 85 27 L 84 27 L 83 27 L 82 27 L 81 27 L 80 27 L 79 27 L 78 27 L 77 27 L 76 27 L 75 27 L 74 27 L 73 27 L 72 27 L 71 27 L 70 27 L 69 27 L 68 27 L 67 27 L 66 27 L 65 27 L 64 27 L 63 27 L 62 27 L 61 27 L 60 27 L 59 27 L 58 27 L 57 27 L 56 27 L 55 27 L 54 27 L 53 27 L 52 27 L 51 27 L 50 27 L 49 27 L 48 27 L 47 27 L 46 27 L 45 27 L 44 27 L 43 27 L 42 27 L 41 27 L 40 27 L 39 27 L 38 27 L 37 27 L 36 27 L 35 27 L 34 27 L 33 27 L 32 27 L 31 27 L 30 27 L 29 27 L 29 28 L 29 29 L 29 30 L 29 31 L 29 32 L 29 33 L 29 34 L 29 35 L 29 36 L 29 37 L 29 38 L 29 39 L 29 40 L 30 40 L 31 41 L 31 42 L 31 43 L 30 44 L 29 44 L 28 43 L 27 43 L 26 43 L 25 42 L 24 42 L 23 41 L 23 40 L 23 39 L 23 38 L 23 37 L 23 36 L 23 35 L 23 34 L 23 33 L 23 32 L 23 31 L 23 30 L 23 29 L 23 28 L 23 27 L 22 27 L 21 27 L 20 27 Z" fill="#FFFFFF"/>
<path d="M 59 53 L 58 54 L 57 54 L 56 55 L 55 55 L 54 56 L 54 57 L 54 58 L 54 59 L 54 60 L 54 61 L 54 62 L 54 63 L 55 64 L 56 65 L 57 66 L 58 66 L 59 67 L 60 67 L 61 66 L 62 66 L 63 65 L 64 64 L 64 63 L 64 62 L 64 61 L 64 60 L 65 59 L 65 58 L 65 57 L 65 56 L 64 55 L 63 55 L 62 54 L 61 54 L 60 53 Z M 63 38 L 63 39 L 63 40 L 63 41 L 63 42 L 63 43 L 63 44 L 63 45 L 63 46 L 63 47 L 63 48 L 63 49 L 64 50 L 65 50 L 66 50 L 67 50 L 68 50 L 69 49 L 70 49 L 71 48 L 72 48 L 73 47 L 74 47 L 75 46 L 76 46 L 77 45 L 78 45 L 79 44 L 80 44 L 81 43 L 82 42 L 82 41 L 82 40 L 82 39 L 82 38 L 81 38 L 80 38 L 79 38 L 78 38 L 77 38 L 76 38 L 75 38 L 74 38 L 73 38 L 72 38 L 71 38 L 70 38 L 69 38 L 68 38 L 67 38 L 66 38 L 65 38 L 64 38 Z M 39 38 L 39 39 L 39 40 L 39 41 L 39 42 L 39 43 L 40 44 L 41 44 L 42 45 L 43 45 L 44 46 L 45 46 L 46 47 L 47 47 L 48 48 L 49 49 L 50 49 L 51 50 L 52 50 L 53 50 L 54 50 L 55 50 L 56 50 L 57 49 L 57 48 L 57 47 L 57 46 L 57 45 L 57 44 L 57 43 L 57 42 L 57 41 L 57 40 L 57 39 L 57 38 L 56 38 L 55 38 L 54 38 L 53 38 L 52 38 L 51 38 L 50 38 L 49 38 L 48 38 L 47 38 L 46 38 L 45 38 L 44 38 L 43 38 L 42 38 L 41 38 L 40 38 Z" fill="#2f7f5f"/>
</g></svg>