<svg xmlns="http://www.w3.org/2000/svg" width="375" height="115" viewBox="0 0 375 115">
<g fill-rule="evenodd">
<path d="M 289 61 L 289 62 L 289 63 L 289 64 L 290 64 L 291 64 L 292 64 L 293 64 L 294 64 L 295 64 L 296 64 L 297 64 L 298 64 L 299 64 L 300 64 L 301 64 L 302 64 L 303 64 L 304 64 L 305 64 L 306 64 L 307 64 L 308 64 L 309 64 L 310 64 L 311 64 L 312 64 L 313 64 L 314 64 L 315 64 L 316 64 L 317 64 L 318 64 L 319 64 L 320 64 L 321 64 L 322 64 L 323 64 L 324 64 L 325 64 L 326 64 L 327 64 L 328 64 L 329 64 L 330 64 L 331 64 L 332 64 L 333 64 L 334 64 L 335 64 L 336 64 L 337 64 L 338 64 L 339 64 L 340 64 L 341 64 L 341 63 L 341 62 L 341 61 L 340 61 L 339 61 L 338 61 L 337 61 L 336 61 L 335 61 L 334 61 L 333 61 L 332 61 L 331 61 L 330 61 L 329 61 L 328 61 L 327 61 L 326 61 L 325 61 L 324 61 L 323 61 L 322 61 L 321 61 L 320 61 L 319 61 L 318 61 L 317 61 L 316 61 L 315 61 L 314 61 L 313 61 L 312 61 L 311 61 L 310 61 L 309 61 L 308 61 L 307 61 L 306 61 L 305 61 L 304 61 L 303 61 L 302 61 L 301 61 L 300 61 L 299 61 L 298 61 L 297 61 L 296 61 L 295 61 L 294 61 L 293 61 L 292 61 L 291 61 L 290 61 Z M 277 56 L 276 57 L 275 57 L 274 57 L 273 57 L 272 57 L 271 57 L 270 57 L 269 57 L 268 57 L 267 57 L 266 57 L 265 57 L 264 57 L 263 57 L 263 58 L 263 59 L 263 60 L 263 61 L 263 62 L 263 63 L 263 64 L 262 65 L 261 65 L 260 64 L 260 63 L 259 63 L 258 63 L 257 63 L 256 63 L 255 63 L 254 63 L 253 63 L 252 63 L 251 63 L 250 63 L 249 63 L 248 63 L 247 62 L 247 61 L 248 60 L 249 60 L 250 60 L 251 60 L 252 60 L 253 60 L 254 60 L 255 60 L 256 60 L 257 60 L 258 60 L 259 60 L 259 59 L 259 58 L 259 57 L 258 57 L 257 57 L 256 57 L 255 57 L 254 57 L 253 57 L 252 57 L 251 57 L 250 57 L 249 57 L 248 57 L 247 57 L 246 57 L 245 57 L 244 57 L 243 57 L 242 58 L 241 58 L 241 59 L 240 60 L 239 60 L 238 60 L 237 59 L 237 58 L 236 58 L 235 57 L 234 57 L 233 57 L 232 57 L 231 57 L 230 57 L 229 57 L 228 57 L 227 57 L 226 57 L 225 57 L 224 57 L 223 57 L 222 57 L 221 57 L 220 57 L 219 57 L 218 57 L 218 58 L 218 59 L 218 60 L 218 61 L 218 62 L 218 63 L 218 64 L 218 65 L 218 66 L 218 67 L 218 68 L 217 69 L 217 70 L 217 71 L 217 72 L 217 73 L 218 74 L 219 74 L 220 74 L 221 74 L 222 74 L 223 73 L 223 72 L 223 71 L 223 70 L 224 69 L 225 68 L 226 68 L 227 68 L 228 69 L 229 70 L 229 71 L 230 72 L 231 73 L 232 73 L 233 74 L 234 74 L 235 74 L 236 74 L 237 74 L 238 73 L 238 72 L 237 72 L 236 71 L 235 70 L 235 69 L 235 68 L 236 67 L 236 66 L 237 65 L 238 64 L 239 64 L 240 65 L 240 66 L 240 67 L 240 68 L 240 69 L 241 70 L 241 71 L 241 72 L 242 72 L 243 72 L 244 73 L 244 74 L 245 74 L 246 74 L 247 74 L 248 74 L 249 74 L 250 74 L 251 74 L 252 74 L 253 74 L 254 74 L 255 74 L 256 74 L 257 74 L 258 74 L 259 73 L 260 73 L 260 72 L 261 71 L 262 71 L 263 72 L 263 73 L 264 74 L 265 74 L 266 74 L 267 74 L 268 74 L 269 74 L 270 74 L 271 74 L 272 74 L 273 74 L 274 74 L 275 74 L 276 74 L 277 74 L 278 74 L 279 74 L 280 73 L 281 73 L 281 72 L 281 71 L 281 70 L 280 69 L 279 69 L 278 68 L 278 67 L 278 66 L 278 65 L 278 64 L 278 63 L 278 62 L 279 61 L 280 60 L 280 59 L 280 58 L 280 57 L 280 56 L 279 56 L 278 56 Z M 246 65 L 247 64 L 248 64 L 249 65 L 249 66 L 249 67 L 248 68 L 247 68 L 246 67 L 246 66 Z M 224 61 L 225 60 L 226 60 L 227 60 L 228 60 L 229 60 L 230 60 L 231 61 L 231 62 L 231 63 L 230 64 L 229 64 L 228 64 L 227 64 L 226 64 L 225 64 L 224 63 L 224 62 Z M 196 56 L 196 57 L 195 58 L 194 58 L 194 59 L 193 60 L 192 60 L 191 59 L 191 58 L 191 57 L 190 57 L 189 57 L 188 57 L 187 57 L 186 57 L 185 57 L 184 57 L 183 57 L 182 57 L 181 57 L 180 57 L 179 57 L 178 57 L 177 57 L 176 57 L 175 57 L 174 57 L 173 57 L 172 57 L 172 58 L 172 59 L 172 60 L 172 61 L 172 62 L 172 63 L 172 64 L 172 65 L 172 66 L 172 67 L 172 68 L 172 69 L 172 70 L 172 71 L 172 72 L 173 73 L 174 74 L 175 74 L 176 74 L 177 74 L 178 73 L 179 73 L 179 72 L 179 71 L 179 70 L 179 69 L 179 68 L 180 67 L 181 67 L 182 67 L 183 67 L 184 67 L 185 67 L 186 67 L 187 67 L 188 67 L 189 66 L 189 65 L 189 64 L 189 63 L 189 62 L 190 61 L 191 61 L 192 62 L 192 63 L 192 64 L 192 65 L 192 66 L 192 67 L 192 68 L 192 69 L 193 70 L 194 71 L 195 72 L 195 73 L 196 73 L 197 74 L 198 74 L 199 74 L 200 74 L 201 74 L 202 74 L 203 74 L 204 74 L 205 74 L 206 74 L 207 74 L 208 74 L 209 74 L 210 74 L 211 73 L 212 73 L 212 72 L 213 71 L 214 70 L 214 69 L 214 68 L 214 67 L 214 66 L 214 65 L 214 64 L 214 63 L 214 62 L 214 61 L 214 60 L 213 59 L 212 58 L 212 57 L 211 57 L 210 56 L 209 56 L 208 56 L 207 56 L 206 57 L 205 57 L 204 57 L 203 57 L 202 57 L 201 57 L 200 57 L 199 57 L 198 57 L 197 56 Z M 199 62 L 200 61 L 201 61 L 202 61 L 203 61 L 204 61 L 205 61 L 206 62 L 207 63 L 207 64 L 208 65 L 208 66 L 208 67 L 207 68 L 206 69 L 205 69 L 204 69 L 203 69 L 202 69 L 201 69 L 200 68 L 199 67 L 199 66 L 199 65 L 199 64 L 199 63 Z M 183 61 L 184 60 L 185 60 L 186 60 L 187 60 L 188 60 L 189 61 L 189 62 L 188 63 L 187 63 L 186 63 L 185 63 L 184 63 L 183 62 Z M 191 31 L 191 32 L 191 33 L 191 34 L 191 35 L 191 36 L 191 37 L 191 38 L 191 39 L 191 40 L 191 41 L 191 42 L 191 43 L 191 44 L 191 45 L 191 46 L 191 47 L 191 48 L 191 49 L 191 50 L 192 50 L 193 50 L 194 50 L 195 50 L 196 50 L 197 50 L 197 49 L 197 48 L 197 47 L 197 46 L 197 45 L 198 44 L 199 43 L 200 43 L 201 43 L 202 43 L 203 43 L 204 43 L 205 43 L 206 43 L 207 42 L 207 41 L 206 40 L 206 39 L 205 39 L 204 39 L 203 39 L 202 39 L 201 39 L 200 39 L 199 39 L 198 38 L 198 37 L 199 36 L 200 36 L 201 36 L 202 36 L 203 36 L 204 36 L 205 36 L 206 36 L 207 36 L 208 36 L 208 35 L 208 34 L 209 33 L 210 33 L 211 34 L 211 35 L 211 36 L 211 37 L 211 38 L 211 39 L 211 40 L 211 41 L 211 42 L 211 43 L 211 44 L 211 45 L 211 46 L 211 47 L 211 48 L 211 49 L 211 50 L 212 50 L 213 50 L 214 50 L 215 50 L 216 51 L 217 51 L 218 51 L 219 51 L 220 51 L 221 50 L 222 50 L 223 50 L 224 50 L 225 50 L 226 50 L 227 50 L 228 50 L 229 50 L 230 50 L 231 50 L 232 50 L 233 50 L 234 51 L 235 51 L 236 51 L 237 51 L 238 51 L 239 50 L 240 50 L 241 50 L 242 50 L 243 50 L 244 50 L 245 50 L 246 50 L 247 50 L 248 50 L 249 50 L 250 50 L 251 50 L 252 50 L 253 50 L 254 50 L 255 50 L 256 50 L 257 50 L 258 50 L 259 50 L 260 50 L 261 50 L 262 50 L 263 50 L 264 50 L 265 50 L 266 49 L 267 49 L 268 49 L 269 49 L 270 50 L 271 51 L 272 51 L 273 51 L 274 50 L 275 50 L 276 50 L 277 50 L 278 50 L 279 50 L 280 50 L 281 50 L 282 50 L 283 50 L 284 50 L 285 50 L 286 49 L 287 49 L 288 48 L 289 47 L 289 46 L 289 45 L 289 44 L 289 43 L 289 42 L 289 41 L 288 40 L 288 39 L 289 38 L 290 38 L 291 38 L 292 39 L 292 40 L 292 41 L 292 42 L 293 43 L 294 44 L 294 45 L 294 46 L 295 47 L 295 48 L 295 49 L 296 50 L 297 51 L 298 51 L 299 52 L 300 52 L 300 51 L 301 50 L 302 50 L 303 50 L 303 49 L 303 48 L 304 47 L 304 46 L 305 45 L 306 45 L 307 46 L 307 47 L 307 48 L 308 49 L 308 50 L 309 51 L 309 52 L 310 52 L 311 51 L 312 51 L 313 52 L 314 52 L 314 51 L 315 50 L 315 49 L 316 48 L 316 47 L 316 46 L 317 45 L 317 44 L 317 43 L 318 42 L 319 41 L 319 40 L 320 39 L 321 39 L 322 39 L 323 40 L 323 41 L 324 42 L 325 42 L 326 43 L 327 43 L 328 44 L 328 45 L 327 46 L 326 46 L 325 46 L 324 46 L 323 46 L 323 47 L 323 48 L 323 49 L 323 50 L 324 51 L 324 52 L 325 52 L 326 52 L 326 51 L 327 50 L 328 50 L 329 50 L 330 50 L 331 50 L 332 50 L 333 50 L 334 50 L 335 50 L 336 51 L 337 51 L 338 50 L 339 50 L 340 49 L 341 48 L 341 47 L 341 46 L 341 45 L 341 44 L 341 43 L 341 42 L 341 41 L 340 40 L 340 39 L 339 38 L 339 37 L 340 36 L 340 35 L 341 34 L 341 33 L 340 32 L 339 31 L 338 31 L 337 31 L 336 31 L 335 31 L 334 31 L 333 31 L 332 31 L 331 31 L 330 31 L 329 31 L 328 31 L 327 31 L 326 31 L 325 31 L 325 32 L 324 33 L 323 33 L 322 33 L 321 32 L 321 31 L 320 31 L 319 31 L 318 31 L 317 31 L 316 31 L 316 32 L 316 33 L 315 34 L 315 35 L 315 36 L 314 37 L 314 38 L 314 39 L 313 40 L 312 40 L 311 40 L 310 39 L 310 38 L 310 37 L 310 36 L 310 35 L 310 34 L 309 34 L 308 33 L 308 32 L 308 31 L 307 31 L 306 31 L 305 31 L 304 32 L 303 32 L 302 32 L 301 32 L 301 33 L 302 34 L 302 35 L 302 36 L 302 37 L 302 38 L 302 39 L 301 40 L 300 41 L 299 41 L 298 40 L 298 39 L 298 38 L 297 37 L 297 36 L 296 35 L 296 34 L 296 33 L 295 32 L 295 31 L 294 31 L 293 31 L 292 31 L 291 31 L 290 31 L 289 31 L 289 32 L 288 33 L 287 33 L 286 32 L 285 32 L 284 32 L 283 31 L 282 31 L 281 32 L 280 32 L 279 32 L 278 32 L 277 32 L 276 32 L 275 32 L 274 32 L 273 32 L 272 32 L 271 32 L 270 32 L 269 32 L 268 32 L 268 33 L 267 34 L 266 34 L 266 35 L 267 36 L 267 37 L 266 38 L 266 39 L 266 40 L 266 41 L 266 42 L 266 43 L 266 44 L 265 45 L 264 46 L 263 46 L 262 46 L 261 46 L 260 46 L 259 46 L 258 46 L 257 46 L 256 45 L 256 44 L 256 43 L 256 42 L 256 41 L 256 40 L 256 39 L 256 38 L 256 37 L 256 36 L 256 35 L 256 34 L 256 33 L 255 32 L 255 31 L 254 31 L 253 31 L 252 31 L 251 31 L 250 31 L 249 32 L 249 33 L 249 34 L 249 35 L 249 36 L 249 37 L 249 38 L 249 39 L 249 40 L 249 41 L 249 42 L 249 43 L 248 44 L 248 45 L 247 46 L 246 46 L 245 46 L 244 46 L 243 46 L 242 46 L 241 46 L 240 46 L 239 46 L 238 45 L 238 44 L 238 43 L 238 42 L 238 41 L 238 40 L 238 39 L 238 38 L 238 37 L 238 36 L 238 35 L 238 34 L 238 33 L 237 32 L 237 31 L 236 31 L 235 31 L 234 31 L 233 31 L 232 31 L 231 31 L 230 32 L 229 32 L 228 32 L 227 31 L 226 31 L 225 31 L 224 31 L 223 31 L 222 31 L 221 31 L 220 31 L 219 31 L 218 31 L 217 31 L 216 31 L 215 31 L 214 31 L 213 31 L 212 31 L 211 31 L 210 32 L 209 32 L 208 31 L 207 31 L 206 31 L 205 31 L 204 31 L 203 31 L 202 32 L 201 32 L 200 32 L 199 32 L 198 32 L 197 32 L 196 32 L 195 31 L 194 31 L 193 31 L 192 31 Z M 274 37 L 275 36 L 276 36 L 277 36 L 278 36 L 279 36 L 280 36 L 281 37 L 282 38 L 282 39 L 282 40 L 282 41 L 282 42 L 282 43 L 282 44 L 281 45 L 280 46 L 279 46 L 278 46 L 277 46 L 276 46 L 275 46 L 274 46 L 273 45 L 273 44 L 273 43 L 273 42 L 273 41 L 273 40 L 273 39 L 273 38 Z M 228 34 L 229 33 L 230 33 L 231 34 L 231 35 L 231 36 L 231 37 L 231 38 L 231 39 L 231 40 L 231 41 L 231 42 L 231 43 L 231 44 L 231 45 L 231 46 L 231 47 L 230 48 L 229 48 L 228 47 L 228 46 L 227 45 L 226 44 L 226 43 L 226 42 L 226 41 L 226 40 L 226 39 L 225 39 L 224 39 L 223 39 L 222 39 L 221 39 L 220 39 L 219 39 L 218 38 L 218 37 L 219 36 L 220 36 L 221 36 L 222 36 L 223 36 L 224 36 L 225 36 L 226 35 L 227 35 L 228 35 Z M 168 31 L 167 32 L 167 33 L 167 34 L 167 35 L 167 36 L 167 37 L 167 38 L 167 39 L 167 40 L 167 41 L 167 42 L 167 43 L 167 44 L 167 45 L 167 46 L 167 47 L 167 48 L 167 49 L 167 50 L 168 50 L 169 51 L 170 51 L 171 51 L 172 51 L 173 51 L 174 51 L 175 51 L 176 51 L 177 51 L 178 51 L 179 51 L 180 51 L 181 51 L 182 51 L 183 51 L 184 50 L 185 49 L 186 48 L 187 47 L 187 46 L 187 45 L 187 44 L 187 43 L 187 42 L 187 41 L 187 40 L 187 39 L 187 38 L 187 37 L 187 36 L 187 35 L 187 34 L 187 33 L 186 32 L 185 32 L 184 32 L 183 32 L 182 32 L 181 31 L 180 31 L 179 31 L 178 31 L 177 31 L 176 31 L 175 31 L 174 31 L 173 31 L 172 31 L 171 31 L 170 31 L 169 31 Z M 174 36 L 175 35 L 176 35 L 177 35 L 178 35 L 179 35 L 180 35 L 181 36 L 182 37 L 182 38 L 182 39 L 182 40 L 182 41 L 182 42 L 182 43 L 182 44 L 181 45 L 180 45 L 179 45 L 178 45 L 177 45 L 176 45 L 175 45 L 174 44 L 174 43 L 174 42 L 174 41 L 174 40 L 174 39 L 174 38 L 174 37 Z M 144 31 L 143 32 L 143 33 L 143 34 L 143 35 L 143 36 L 143 37 L 143 38 L 143 39 L 143 40 L 143 41 L 143 42 L 143 43 L 143 44 L 143 45 L 143 46 L 143 47 L 143 48 L 143 49 L 143 50 L 144 50 L 145 51 L 146 51 L 147 51 L 148 51 L 149 51 L 150 51 L 151 51 L 152 51 L 153 51 L 154 51 L 155 50 L 156 50 L 157 50 L 158 51 L 159 51 L 160 50 L 161 49 L 162 49 L 163 48 L 163 47 L 164 46 L 164 45 L 164 44 L 164 43 L 164 42 L 164 41 L 164 40 L 164 39 L 164 38 L 164 37 L 164 36 L 164 35 L 163 34 L 162 33 L 161 32 L 160 32 L 159 31 L 158 31 L 157 31 L 156 31 L 155 31 L 154 31 L 153 31 L 152 31 L 151 31 L 150 31 L 149 32 L 148 32 L 147 32 L 146 31 L 145 31 Z M 150 37 L 151 36 L 152 36 L 153 36 L 154 36 L 155 36 L 156 36 L 157 37 L 157 38 L 157 39 L 157 40 L 157 41 L 157 42 L 157 43 L 157 44 L 156 45 L 155 45 L 154 45 L 153 45 L 152 45 L 151 45 L 150 45 L 149 44 L 149 43 L 150 42 L 150 41 L 150 40 L 150 39 L 150 38 Z M 121 31 L 120 32 L 120 33 L 119 34 L 118 35 L 118 36 L 118 37 L 118 38 L 118 39 L 118 40 L 118 41 L 119 42 L 119 43 L 119 44 L 119 45 L 119 46 L 119 47 L 119 48 L 119 49 L 120 49 L 121 49 L 122 50 L 123 50 L 124 50 L 125 50 L 126 50 L 127 50 L 128 50 L 129 50 L 130 50 L 131 51 L 131 52 L 131 53 L 130 54 L 129 54 L 129 55 L 129 56 L 129 57 L 128 58 L 127 58 L 127 59 L 127 60 L 126 61 L 125 61 L 124 61 L 123 61 L 122 61 L 121 61 L 120 61 L 119 61 L 118 61 L 118 62 L 118 63 L 118 64 L 119 64 L 120 64 L 121 64 L 122 64 L 123 64 L 124 64 L 125 64 L 126 64 L 127 64 L 128 64 L 129 64 L 130 64 L 131 64 L 132 64 L 133 64 L 134 64 L 135 64 L 136 64 L 137 64 L 138 64 L 139 64 L 140 64 L 141 64 L 142 64 L 143 64 L 144 64 L 145 64 L 146 64 L 147 64 L 148 64 L 149 64 L 150 64 L 151 64 L 152 64 L 153 64 L 154 64 L 155 64 L 156 64 L 157 64 L 158 64 L 159 64 L 160 64 L 161 64 L 162 64 L 163 64 L 164 64 L 165 64 L 166 63 L 166 62 L 165 61 L 164 61 L 163 61 L 162 61 L 161 61 L 160 61 L 159 61 L 158 61 L 157 61 L 156 61 L 155 61 L 154 61 L 153 61 L 152 61 L 151 61 L 150 61 L 149 61 L 148 61 L 147 61 L 146 61 L 145 61 L 144 61 L 143 61 L 142 60 L 142 59 L 142 58 L 143 57 L 143 56 L 142 55 L 141 55 L 140 55 L 139 54 L 139 53 L 139 52 L 138 52 L 137 51 L 137 50 L 138 49 L 139 49 L 139 48 L 140 47 L 140 46 L 140 45 L 140 44 L 140 43 L 140 42 L 140 41 L 140 40 L 140 39 L 140 38 L 140 37 L 140 36 L 140 35 L 140 34 L 140 33 L 139 32 L 138 32 L 137 32 L 136 32 L 135 32 L 134 32 L 133 32 L 132 32 L 131 31 L 130 31 L 129 31 L 128 31 L 127 31 L 126 31 L 125 31 L 124 31 L 123 31 L 122 31 Z M 125 36 L 126 35 L 127 35 L 128 35 L 129 35 L 130 35 L 131 35 L 132 35 L 133 36 L 133 37 L 133 38 L 133 39 L 133 40 L 133 41 L 133 42 L 133 43 L 133 44 L 133 45 L 132 46 L 131 46 L 130 46 L 129 46 L 128 46 L 127 46 L 126 46 L 125 45 L 125 44 L 125 43 L 125 42 L 125 41 L 124 40 L 124 39 L 124 38 L 124 37 Z M 18 25 L 18 26 L 17 27 L 16 27 L 16 28 L 16 29 L 16 30 L 16 31 L 16 32 L 16 33 L 16 34 L 16 35 L 16 36 L 16 37 L 16 38 L 16 39 L 16 40 L 17 41 L 17 42 L 17 43 L 18 44 L 18 45 L 18 46 L 18 47 L 17 48 L 16 48 L 16 49 L 16 50 L 16 51 L 16 52 L 16 53 L 17 54 L 18 55 L 18 56 L 18 57 L 17 58 L 16 58 L 16 59 L 16 60 L 16 61 L 16 62 L 16 63 L 16 64 L 17 65 L 17 66 L 16 67 L 16 68 L 16 69 L 16 70 L 16 71 L 16 72 L 16 73 L 16 74 L 16 75 L 16 76 L 17 76 L 18 77 L 18 78 L 19 78 L 20 79 L 21 79 L 22 80 L 23 80 L 24 81 L 25 81 L 26 82 L 27 82 L 28 83 L 29 83 L 30 84 L 31 84 L 32 85 L 33 85 L 34 85 L 35 85 L 36 85 L 36 84 L 37 83 L 38 83 L 39 83 L 40 82 L 40 81 L 41 80 L 42 80 L 43 80 L 44 81 L 45 81 L 46 81 L 47 82 L 48 82 L 49 82 L 49 81 L 49 80 L 49 79 L 49 78 L 49 77 L 49 76 L 48 75 L 47 75 L 46 75 L 45 74 L 44 74 L 43 73 L 42 73 L 41 72 L 40 72 L 39 71 L 38 71 L 37 70 L 36 70 L 35 69 L 35 68 L 34 67 L 34 66 L 34 65 L 34 64 L 34 63 L 35 62 L 35 61 L 35 60 L 35 59 L 35 58 L 35 57 L 35 56 L 34 56 L 33 55 L 32 54 L 31 54 L 30 53 L 29 53 L 28 53 L 27 52 L 26 52 L 25 51 L 25 50 L 26 49 L 27 49 L 28 49 L 29 50 L 30 50 L 31 50 L 32 51 L 33 51 L 34 51 L 35 52 L 36 52 L 37 53 L 37 54 L 38 54 L 39 55 L 40 55 L 41 55 L 42 56 L 42 57 L 41 58 L 40 58 L 39 58 L 38 59 L 38 60 L 38 61 L 38 62 L 38 63 L 38 64 L 38 65 L 38 66 L 38 67 L 39 67 L 40 68 L 41 68 L 42 69 L 43 69 L 44 70 L 45 70 L 46 71 L 47 71 L 48 72 L 49 72 L 50 73 L 51 73 L 52 74 L 52 75 L 53 76 L 53 77 L 53 78 L 53 79 L 53 80 L 53 81 L 53 82 L 53 83 L 53 84 L 53 85 L 53 86 L 52 87 L 51 87 L 50 87 L 49 87 L 48 86 L 47 85 L 46 84 L 45 84 L 44 84 L 43 84 L 42 84 L 41 85 L 40 85 L 39 86 L 38 86 L 38 87 L 39 88 L 40 89 L 41 89 L 42 90 L 43 90 L 44 91 L 45 91 L 46 92 L 47 92 L 48 93 L 49 93 L 50 94 L 51 94 L 52 95 L 53 95 L 54 95 L 55 96 L 56 97 L 57 97 L 58 97 L 59 97 L 60 96 L 60 95 L 59 94 L 59 93 L 60 92 L 60 91 L 60 90 L 59 89 L 59 88 L 59 87 L 59 86 L 59 85 L 59 84 L 59 83 L 60 82 L 60 81 L 60 80 L 60 79 L 60 78 L 59 77 L 59 76 L 59 75 L 59 74 L 59 73 L 59 72 L 59 71 L 58 70 L 57 70 L 56 69 L 55 69 L 54 68 L 53 68 L 52 67 L 51 67 L 50 66 L 49 66 L 48 65 L 47 65 L 46 64 L 46 63 L 46 62 L 46 61 L 47 60 L 48 60 L 49 61 L 50 61 L 51 61 L 52 61 L 53 60 L 53 59 L 53 58 L 53 57 L 53 56 L 53 55 L 52 55 L 51 54 L 51 53 L 50 53 L 49 52 L 48 52 L 47 51 L 46 51 L 45 50 L 44 50 L 43 50 L 42 49 L 42 48 L 41 48 L 40 47 L 39 47 L 38 46 L 37 46 L 36 45 L 35 45 L 34 45 L 33 44 L 32 44 L 31 44 L 30 43 L 29 43 L 28 42 L 28 41 L 29 40 L 30 40 L 31 40 L 32 40 L 33 40 L 33 39 L 33 38 L 33 37 L 33 36 L 34 35 L 34 34 L 35 33 L 36 33 L 37 33 L 38 34 L 38 35 L 38 36 L 39 36 L 39 35 L 40 34 L 41 34 L 42 34 L 43 34 L 44 34 L 45 34 L 46 34 L 47 34 L 48 34 L 49 34 L 50 34 L 51 34 L 52 34 L 53 34 L 54 34 L 55 34 L 56 34 L 57 34 L 58 34 L 59 34 L 60 33 L 61 33 L 62 33 L 63 33 L 64 34 L 65 34 L 66 34 L 67 34 L 68 34 L 69 34 L 70 34 L 71 34 L 72 34 L 73 34 L 74 34 L 75 34 L 76 34 L 77 34 L 78 34 L 79 34 L 80 34 L 81 34 L 82 34 L 83 34 L 84 34 L 85 34 L 86 35 L 86 36 L 86 37 L 86 38 L 87 38 L 88 38 L 89 39 L 89 40 L 89 41 L 90 41 L 91 40 L 92 40 L 93 40 L 94 40 L 95 41 L 95 42 L 94 43 L 93 43 L 92 43 L 91 43 L 90 44 L 89 44 L 88 45 L 87 45 L 86 46 L 85 47 L 84 47 L 84 48 L 83 49 L 82 49 L 81 50 L 80 50 L 79 51 L 78 51 L 77 52 L 76 52 L 75 53 L 74 53 L 73 54 L 72 54 L 71 54 L 70 55 L 69 55 L 69 56 L 70 56 L 71 57 L 71 58 L 71 59 L 71 60 L 71 61 L 72 61 L 73 61 L 74 61 L 75 60 L 76 59 L 77 59 L 78 59 L 79 60 L 79 61 L 79 62 L 78 63 L 77 63 L 77 64 L 76 65 L 75 65 L 74 66 L 73 66 L 72 67 L 71 67 L 70 67 L 69 67 L 68 68 L 67 68 L 67 69 L 66 70 L 65 70 L 64 71 L 64 72 L 64 73 L 64 74 L 64 75 L 64 76 L 64 77 L 63 78 L 63 79 L 63 80 L 63 81 L 63 82 L 64 83 L 64 84 L 64 85 L 64 86 L 64 87 L 64 88 L 64 89 L 64 90 L 64 91 L 64 92 L 64 93 L 64 94 L 64 95 L 64 96 L 64 97 L 65 97 L 66 97 L 67 96 L 68 96 L 69 96 L 70 96 L 71 95 L 72 95 L 72 94 L 73 93 L 74 93 L 75 93 L 76 93 L 77 92 L 78 91 L 79 91 L 80 90 L 81 90 L 81 89 L 82 88 L 83 88 L 84 87 L 85 87 L 85 86 L 84 86 L 83 86 L 82 85 L 81 85 L 80 84 L 80 83 L 79 83 L 78 84 L 77 84 L 76 83 L 76 82 L 77 81 L 78 81 L 79 80 L 80 80 L 81 80 L 82 80 L 83 81 L 83 82 L 84 82 L 85 83 L 86 84 L 87 84 L 88 84 L 89 85 L 90 85 L 91 85 L 92 84 L 93 84 L 94 83 L 95 83 L 96 82 L 97 82 L 98 81 L 99 81 L 100 80 L 101 80 L 101 79 L 102 78 L 103 78 L 104 77 L 105 77 L 106 77 L 106 76 L 106 75 L 106 74 L 106 73 L 106 72 L 106 71 L 106 70 L 106 69 L 106 68 L 106 67 L 106 66 L 106 65 L 106 64 L 106 63 L 106 62 L 107 61 L 107 60 L 107 59 L 107 58 L 106 58 L 105 58 L 104 58 L 103 58 L 102 59 L 101 60 L 100 60 L 99 60 L 99 61 L 99 62 L 99 63 L 99 64 L 99 65 L 99 66 L 99 67 L 99 68 L 99 69 L 99 70 L 99 71 L 99 72 L 99 73 L 99 74 L 98 75 L 97 75 L 96 75 L 95 75 L 94 74 L 94 73 L 95 72 L 95 71 L 95 70 L 95 69 L 95 68 L 95 67 L 95 66 L 95 65 L 95 64 L 95 63 L 95 62 L 95 61 L 96 60 L 96 59 L 97 58 L 98 58 L 99 57 L 100 57 L 101 56 L 102 56 L 103 55 L 104 55 L 105 54 L 106 54 L 107 53 L 107 52 L 107 51 L 107 50 L 107 49 L 107 48 L 106 47 L 105 47 L 104 48 L 103 49 L 102 49 L 101 50 L 100 50 L 99 50 L 98 49 L 98 48 L 99 47 L 100 47 L 101 46 L 102 46 L 103 45 L 104 44 L 105 44 L 106 44 L 107 43 L 107 42 L 107 41 L 107 40 L 107 39 L 107 38 L 107 37 L 107 36 L 107 35 L 107 34 L 107 33 L 107 32 L 107 31 L 107 30 L 107 29 L 107 28 L 107 27 L 106 26 L 106 25 L 105 25 L 104 25 L 103 25 L 102 25 L 101 25 L 100 25 L 100 26 L 99 27 L 98 27 L 97 27 L 96 26 L 95 26 L 94 25 L 93 25 L 92 25 L 91 25 L 90 25 L 89 25 L 88 25 L 87 25 L 86 25 L 85 25 L 84 25 L 83 25 L 82 25 L 81 25 L 80 25 L 79 25 L 78 25 L 77 25 L 76 25 L 75 25 L 74 25 L 73 25 L 72 25 L 71 25 L 70 25 L 69 25 L 68 25 L 67 25 L 66 25 L 65 25 L 64 25 L 63 25 L 62 25 L 61 25 L 60 25 L 59 25 L 58 25 L 57 25 L 56 25 L 55 25 L 54 25 L 53 25 L 52 25 L 51 25 L 50 25 L 49 25 L 48 25 L 47 25 L 46 25 L 45 25 L 44 25 L 43 25 L 42 25 L 41 25 L 40 25 L 39 25 L 38 25 L 37 25 L 36 25 L 35 25 L 34 25 L 33 25 L 32 25 L 31 25 L 30 25 L 29 25 L 28 25 L 27 26 L 26 27 L 25 27 L 24 27 L 23 26 L 23 25 L 22 25 L 21 25 L 20 25 L 19 25 Z M 70 81 L 71 80 L 72 80 L 73 81 L 73 82 L 74 83 L 75 83 L 76 83 L 77 84 L 77 85 L 76 86 L 75 86 L 74 87 L 73 87 L 72 87 L 71 87 L 70 86 L 70 85 L 70 84 L 70 83 L 70 82 Z M 91 75 L 92 74 L 93 74 L 94 75 L 94 76 L 93 77 L 92 77 L 91 78 L 90 78 L 89 79 L 88 79 L 87 80 L 86 80 L 85 80 L 84 79 L 84 78 L 85 77 L 86 77 L 87 76 L 88 76 L 89 75 L 90 75 Z M 30 75 L 31 74 L 32 74 L 33 74 L 34 75 L 35 75 L 36 76 L 37 76 L 38 77 L 39 77 L 40 78 L 40 79 L 40 80 L 39 81 L 38 81 L 37 80 L 36 79 L 35 79 L 34 78 L 33 78 L 32 77 L 31 77 L 30 76 Z M 24 60 L 25 59 L 26 59 L 27 60 L 28 61 L 28 62 L 28 63 L 28 64 L 28 65 L 28 66 L 28 67 L 28 68 L 28 69 L 28 70 L 28 71 L 28 72 L 28 73 L 27 74 L 26 74 L 25 73 L 25 72 L 25 71 L 25 70 L 25 69 L 25 68 L 25 67 L 25 66 L 25 65 L 25 64 L 25 63 L 25 62 L 24 61 Z M 94 50 L 95 49 L 96 49 L 97 50 L 97 51 L 96 52 L 95 53 L 94 53 L 93 53 L 92 54 L 91 55 L 90 55 L 89 56 L 89 57 L 89 58 L 89 59 L 89 60 L 89 61 L 89 62 L 89 63 L 89 64 L 89 65 L 89 66 L 89 67 L 88 68 L 88 69 L 87 70 L 86 70 L 85 70 L 84 70 L 83 71 L 82 71 L 81 72 L 80 72 L 79 72 L 78 71 L 78 70 L 79 69 L 80 69 L 81 68 L 82 68 L 83 67 L 84 67 L 85 66 L 85 65 L 85 64 L 85 63 L 85 62 L 85 61 L 85 60 L 85 59 L 84 58 L 83 57 L 83 56 L 83 55 L 84 54 L 85 54 L 86 53 L 87 53 L 88 52 L 89 52 L 90 52 L 91 51 L 92 51 L 93 50 Z M 96 38 L 97 37 L 98 37 L 99 38 L 99 39 L 98 40 L 97 40 L 96 39 Z M 24 30 L 25 29 L 26 29 L 27 30 L 27 31 L 27 32 L 27 33 L 27 34 L 27 35 L 27 36 L 27 37 L 27 38 L 28 39 L 28 40 L 27 41 L 26 41 L 25 41 L 24 40 L 24 39 L 24 38 L 24 37 L 24 36 L 24 35 L 24 34 L 24 33 L 24 32 L 24 31 Z M 358 0 L 358 1 L 358 2 L 359 2 L 360 2 L 361 2 L 362 2 L 363 2 L 364 2 L 365 2 L 366 2 L 367 2 L 368 2 L 369 2 L 370 2 L 371 2 L 372 2 L 373 2 L 374 2 L 374 1 L 374 0 L 373 0 L 372 0 L 371 0 L 370 0 L 369 0 L 368 0 L 367 0 L 366 0 L 365 0 L 364 0 L 363 0 L 362 0 L 361 0 L 360 0 L 359 0 Z M 306 0 L 306 1 L 306 2 L 307 2 L 308 2 L 309 2 L 310 2 L 311 2 L 312 2 L 313 2 L 314 2 L 315 2 L 316 2 L 317 2 L 318 2 L 319 2 L 320 2 L 320 1 L 320 0 L 319 0 L 318 0 L 317 0 L 316 0 L 315 0 L 314 0 L 313 0 L 312 0 L 311 0 L 310 0 L 309 0 L 308 0 L 307 0 Z M 272 0 L 272 1 L 272 2 L 273 2 L 274 2 L 275 2 L 276 2 L 277 2 L 278 2 L 279 2 L 280 2 L 281 2 L 282 2 L 282 1 L 282 0 L 281 0 L 280 0 L 279 0 L 278 0 L 277 0 L 276 0 L 275 0 L 274 0 L 273 0 Z M 192 0 L 192 1 L 192 2 L 193 2 L 194 2 L 195 2 L 196 2 L 197 2 L 198 2 L 199 2 L 200 2 L 201 2 L 202 2 L 203 2 L 204 2 L 205 2 L 206 2 L 207 2 L 208 2 L 209 2 L 210 2 L 211 2 L 212 2 L 213 2 L 214 2 L 215 2 L 216 2 L 217 2 L 218 2 L 218 1 L 218 0 L 217 0 L 216 0 L 215 0 L 214 0 L 213 0 L 212 0 L 211 0 L 210 0 L 209 0 L 208 0 L 207 0 L 206 0 L 205 0 L 204 0 L 203 0 L 202 0 L 201 0 L 200 0 L 199 0 L 198 0 L 197 0 L 196 0 L 195 0 L 194 0 L 193 0 Z M 128 0 L 128 1 L 128 2 L 129 2 L 130 2 L 131 2 L 132 2 L 133 2 L 134 2 L 135 2 L 136 2 L 137 2 L 138 2 L 139 2 L 140 2 L 141 2 L 142 2 L 143 2 L 144 2 L 145 2 L 146 2 L 147 2 L 148 2 L 149 2 L 150 2 L 151 2 L 152 2 L 153 2 L 154 2 L 155 2 L 156 2 L 156 1 L 156 0 L 155 0 L 154 0 L 153 0 L 152 0 L 151 0 L 150 0 L 149 0 L 148 0 L 147 0 L 146 0 L 145 0 L 144 0 L 143 0 L 142 0 L 141 0 L 140 0 L 139 0 L 138 0 L 137 0 L 136 0 L 135 0 L 134 0 L 133 0 L 132 0 L 131 0 L 130 0 L 129 0 Z M 0 0 L 0 1 L 0 2 L 1 2 L 2 2 L 3 2 L 4 2 L 5 2 L 6 2 L 7 2 L 8 2 L 9 2 L 10 2 L 11 2 L 12 2 L 13 2 L 14 2 L 15 2 L 16 2 L 17 2 L 18 2 L 19 2 L 20 2 L 21 2 L 22 2 L 23 2 L 24 2 L 25 2 L 26 2 L 27 2 L 28 2 L 29 2 L 30 2 L 31 2 L 32 2 L 33 2 L 34 2 L 35 2 L 36 2 L 37 2 L 38 2 L 39 2 L 40 2 L 41 2 L 42 2 L 43 2 L 44 2 L 45 2 L 46 2 L 47 2 L 48 2 L 49 2 L 50 2 L 51 2 L 52 2 L 53 2 L 54 2 L 55 2 L 56 2 L 57 2 L 58 2 L 59 2 L 60 2 L 61 2 L 62 2 L 63 2 L 64 2 L 65 2 L 66 2 L 67 2 L 68 2 L 69 2 L 70 2 L 71 2 L 72 2 L 73 2 L 74 2 L 75 2 L 76 2 L 77 2 L 78 2 L 79 2 L 80 2 L 81 2 L 82 2 L 83 2 L 84 2 L 85 2 L 86 2 L 87 2 L 88 2 L 89 2 L 90 2 L 91 2 L 92 2 L 93 2 L 93 1 L 93 0 L 92 0 L 91 0 L 90 0 L 89 0 L 88 0 L 87 0 L 86 0 L 85 0 L 84 0 L 83 0 L 82 0 L 81 0 L 80 0 L 79 0 L 78 0 L 77 0 L 76 0 L 75 0 L 74 0 L 73 0 L 72 0 L 71 0 L 70 0 L 69 0 L 68 0 L 67 0 L 66 0 L 65 0 L 64 0 L 63 0 L 62 0 L 61 0 L 60 0 L 59 0 L 58 0 L 57 0 L 56 0 L 55 0 L 54 0 L 53 0 L 52 0 L 51 0 L 50 0 L 49 0 L 48 0 L 47 0 L 46 0 L 45 0 L 44 0 L 43 0 L 42 0 L 41 0 L 40 0 L 39 0 L 38 0 L 37 0 L 36 0 L 35 0 L 34 0 L 33 0 L 32 0 L 31 0 L 30 0 L 29 0 L 28 0 L 27 0 L 26 0 L 25 0 L 24 0 L 23 0 L 22 0 L 21 0 L 20 0 L 19 0 L 18 0 L 17 0 L 16 0 L 15 0 L 14 0 L 13 0 L 12 0 L 11 0 L 10 0 L 9 0 L 8 0 L 7 0 L 6 0 L 5 0 L 4 0 L 3 0 L 2 0 L 1 0 Z" fill="#111820"/>
<path d="M 39 37 L 38 38 L 38 39 L 38 40 L 38 41 L 39 42 L 40 43 L 41 43 L 42 43 L 43 44 L 44 45 L 45 45 L 46 46 L 47 46 L 48 46 L 49 47 L 50 47 L 51 48 L 52 48 L 53 49 L 53 50 L 53 51 L 54 51 L 55 51 L 56 51 L 56 50 L 57 49 L 58 48 L 59 48 L 59 47 L 59 46 L 59 45 L 59 44 L 59 43 L 59 42 L 59 41 L 59 40 L 59 39 L 59 38 L 59 37 L 58 37 L 57 37 L 56 37 L 55 37 L 54 37 L 53 37 L 52 37 L 51 37 L 50 37 L 49 37 L 48 37 L 47 37 L 46 37 L 45 37 L 44 37 L 43 37 L 42 37 L 41 37 L 40 37 Z M 66 35 L 66 36 L 65 37 L 64 37 L 64 38 L 64 39 L 64 40 L 64 41 L 64 42 L 64 43 L 64 44 L 64 45 L 64 46 L 64 47 L 64 48 L 65 48 L 66 49 L 66 50 L 66 51 L 65 52 L 64 52 L 63 52 L 62 51 L 61 51 L 60 51 L 59 52 L 58 53 L 57 53 L 56 54 L 55 55 L 55 56 L 55 57 L 55 58 L 55 59 L 55 60 L 55 61 L 55 62 L 56 63 L 56 64 L 57 64 L 58 65 L 59 66 L 60 66 L 61 67 L 62 67 L 63 66 L 64 66 L 65 65 L 66 65 L 67 64 L 68 64 L 68 63 L 68 62 L 68 61 L 68 60 L 68 59 L 68 58 L 68 57 L 68 56 L 68 55 L 67 54 L 66 53 L 66 52 L 67 51 L 68 51 L 69 51 L 70 51 L 71 50 L 72 49 L 73 49 L 74 49 L 75 48 L 76 47 L 77 47 L 78 46 L 79 46 L 80 45 L 81 45 L 81 44 L 82 43 L 83 43 L 84 42 L 84 41 L 84 40 L 84 39 L 84 38 L 84 37 L 83 36 L 83 35 L 82 35 L 81 35 L 80 35 L 79 35 L 78 35 L 77 35 L 76 35 L 75 35 L 74 35 L 73 35 L 72 35 L 71 35 L 70 35 L 69 35 L 68 35 L 67 35 Z" fill="#2f7f5f"/>
</g></svg>