<svg xmlns="http://www.w3.org/2000/svg" width="315" height="190" viewBox="0 0 315 190">
<g fill-rule="evenodd">
<path d="M 218 160 L 217 161 L 216 161 L 216 162 L 217 162 L 218 163 L 219 163 L 220 163 L 221 163 L 222 163 L 223 163 L 224 163 L 225 163 L 226 163 L 227 163 L 228 163 L 229 163 L 230 163 L 231 163 L 232 163 L 233 163 L 234 163 L 235 163 L 236 163 L 237 163 L 238 163 L 239 163 L 240 163 L 241 163 L 242 163 L 243 163 L 244 163 L 245 163 L 246 163 L 247 163 L 248 163 L 249 163 L 250 163 L 251 163 L 252 164 L 253 164 L 254 164 L 255 164 L 256 164 L 257 164 L 258 164 L 259 164 L 260 164 L 261 164 L 262 164 L 263 164 L 264 164 L 265 164 L 266 164 L 267 164 L 268 164 L 269 163 L 270 162 L 270 161 L 269 160 L 268 160 L 267 160 L 266 160 L 265 160 L 264 160 L 263 160 L 262 160 L 261 160 L 260 160 L 259 160 L 258 160 L 257 160 L 256 160 L 255 160 L 254 160 L 253 160 L 252 160 L 251 160 L 250 160 L 249 160 L 248 160 L 247 160 L 246 160 L 245 160 L 244 160 L 243 160 L 242 160 L 241 160 L 240 160 L 239 160 L 238 160 L 237 160 L 236 160 L 235 160 L 234 160 L 233 160 L 232 160 L 231 160 L 230 160 L 229 160 L 228 160 L 227 160 L 226 160 L 225 160 L 224 160 L 223 160 L 222 160 L 221 160 L 220 160 L 219 160 Z M 28 159 L 27 160 L 26 160 L 26 161 L 26 162 L 26 163 L 26 164 L 27 164 L 28 164 L 29 163 L 30 163 L 31 163 L 32 163 L 33 163 L 34 163 L 35 163 L 36 163 L 37 163 L 38 163 L 39 163 L 40 163 L 41 163 L 42 163 L 43 163 L 44 163 L 45 163 L 46 163 L 47 163 L 48 163 L 49 163 L 50 163 L 51 163 L 52 163 L 53 163 L 54 164 L 55 164 L 56 164 L 57 164 L 58 164 L 59 164 L 60 164 L 61 164 L 62 164 L 63 164 L 64 164 L 65 164 L 66 164 L 67 164 L 68 164 L 69 164 L 70 164 L 71 164 L 72 164 L 73 164 L 74 163 L 75 162 L 75 161 L 74 160 L 73 159 L 72 159 L 71 160 L 70 160 L 69 160 L 68 159 L 67 159 L 66 160 L 65 160 L 64 160 L 63 160 L 62 160 L 61 160 L 60 160 L 59 160 L 58 160 L 57 160 L 56 160 L 55 160 L 54 160 L 53 160 L 52 160 L 51 160 L 50 160 L 49 160 L 48 160 L 47 160 L 46 160 L 45 160 L 44 160 L 43 160 L 42 160 L 41 160 L 40 160 L 39 160 L 38 160 L 37 160 L 36 159 L 35 159 L 34 159 L 33 159 L 32 159 L 31 159 L 30 159 L 29 159 Z M 188 156 L 188 157 L 188 158 L 188 159 L 188 160 L 188 161 L 188 162 L 188 163 L 188 164 L 188 165 L 188 166 L 188 167 L 188 168 L 188 169 L 188 170 L 188 171 L 188 172 L 188 173 L 188 174 L 189 175 L 190 176 L 191 176 L 192 176 L 193 176 L 194 176 L 195 176 L 196 176 L 197 176 L 198 176 L 199 176 L 200 176 L 201 176 L 202 176 L 203 176 L 204 176 L 205 176 L 206 176 L 207 176 L 208 176 L 209 175 L 210 175 L 210 174 L 210 173 L 210 172 L 209 172 L 208 171 L 208 170 L 207 169 L 207 168 L 207 167 L 207 166 L 207 165 L 207 164 L 206 163 L 206 162 L 207 161 L 208 161 L 208 160 L 208 159 L 208 158 L 208 157 L 208 156 L 207 156 L 206 156 L 205 156 L 204 156 L 203 156 L 202 156 L 201 156 L 200 156 L 199 156 L 198 156 L 197 156 L 196 156 L 195 156 L 194 156 L 193 156 L 192 156 L 191 156 L 190 156 L 189 156 Z M 165 155 L 164 156 L 163 157 L 162 158 L 162 159 L 163 160 L 163 161 L 163 162 L 163 163 L 163 164 L 163 165 L 163 166 L 162 167 L 161 167 L 161 168 L 161 169 L 161 170 L 162 171 L 162 172 L 163 172 L 164 173 L 165 174 L 165 175 L 166 176 L 167 176 L 168 176 L 169 176 L 170 176 L 171 176 L 172 176 L 173 176 L 174 176 L 175 176 L 176 176 L 177 176 L 178 176 L 179 176 L 180 176 L 181 176 L 182 176 L 183 176 L 184 176 L 184 175 L 185 174 L 185 173 L 185 172 L 185 171 L 184 170 L 184 169 L 184 168 L 184 167 L 184 166 L 184 165 L 184 164 L 183 163 L 183 162 L 183 161 L 183 160 L 183 159 L 183 158 L 184 157 L 184 156 L 183 155 L 182 155 L 181 155 L 180 155 L 179 155 L 178 155 L 177 155 L 176 155 L 175 155 L 174 155 L 173 155 L 172 155 L 171 155 L 170 155 L 169 155 L 168 155 L 167 155 L 166 155 Z M 170 168 L 171 167 L 172 167 L 173 168 L 173 169 L 172 170 L 171 170 L 170 169 Z M 170 163 L 171 162 L 172 162 L 173 163 L 173 164 L 172 165 L 171 165 L 170 164 Z M 154 155 L 153 156 L 152 156 L 151 156 L 150 156 L 149 156 L 148 156 L 147 156 L 146 156 L 145 156 L 144 156 L 143 156 L 142 156 L 141 156 L 140 156 L 139 156 L 138 156 L 137 156 L 136 156 L 135 156 L 135 157 L 135 158 L 135 159 L 135 160 L 135 161 L 135 162 L 135 163 L 135 164 L 135 165 L 135 166 L 135 167 L 135 168 L 135 169 L 135 170 L 135 171 L 135 172 L 135 173 L 135 174 L 135 175 L 136 176 L 137 176 L 138 176 L 139 176 L 140 176 L 141 176 L 142 176 L 142 175 L 143 174 L 143 173 L 143 172 L 143 171 L 144 170 L 145 170 L 146 170 L 147 170 L 148 171 L 148 172 L 148 173 L 149 174 L 150 174 L 151 174 L 152 175 L 152 176 L 153 176 L 154 176 L 155 176 L 156 176 L 157 176 L 158 176 L 159 175 L 159 174 L 158 173 L 158 172 L 157 172 L 156 172 L 155 171 L 155 170 L 156 169 L 157 169 L 158 168 L 158 167 L 159 166 L 159 165 L 159 164 L 159 163 L 159 162 L 159 161 L 159 160 L 159 159 L 159 158 L 158 158 L 157 158 L 156 157 L 156 156 L 155 155 Z M 148 160 L 149 159 L 150 159 L 151 160 L 151 161 L 151 162 L 151 163 L 150 164 L 149 164 L 148 164 L 147 164 L 146 164 L 145 164 L 144 164 L 143 164 L 142 163 L 142 162 L 143 161 L 144 161 L 145 161 L 146 161 L 147 161 L 148 161 Z M 113 154 L 112 155 L 111 155 L 110 155 L 109 155 L 109 156 L 109 157 L 108 158 L 107 158 L 107 159 L 107 160 L 107 161 L 107 162 L 108 163 L 108 164 L 108 165 L 108 166 L 108 167 L 108 168 L 108 169 L 108 170 L 107 171 L 107 172 L 107 173 L 108 174 L 109 175 L 110 175 L 111 175 L 112 176 L 113 176 L 114 176 L 115 176 L 116 176 L 117 176 L 118 176 L 119 176 L 120 176 L 121 176 L 122 176 L 123 176 L 124 176 L 125 176 L 126 176 L 127 176 L 128 176 L 129 175 L 129 174 L 130 173 L 131 173 L 132 173 L 132 172 L 132 171 L 132 170 L 132 169 L 132 168 L 132 167 L 131 166 L 131 165 L 131 164 L 132 163 L 132 162 L 132 161 L 132 160 L 132 159 L 131 159 L 130 158 L 130 157 L 130 156 L 129 155 L 128 155 L 127 155 L 126 154 L 125 154 L 124 154 L 123 154 L 122 154 L 121 154 L 120 154 L 119 154 L 118 154 L 117 154 L 116 154 L 115 154 L 114 154 Z M 115 160 L 116 159 L 117 159 L 118 160 L 119 160 L 120 160 L 121 160 L 122 160 L 123 160 L 124 161 L 124 162 L 124 163 L 124 164 L 124 165 L 124 166 L 124 167 L 124 168 L 124 169 L 123 170 L 122 170 L 121 170 L 120 170 L 119 170 L 118 170 L 117 170 L 116 170 L 115 169 L 115 168 L 115 167 L 115 166 L 115 165 L 115 164 L 115 163 L 115 162 L 115 161 Z M 96 154 L 96 155 L 95 156 L 94 156 L 93 156 L 92 156 L 91 156 L 90 156 L 89 156 L 88 156 L 87 156 L 86 156 L 85 156 L 85 157 L 84 158 L 83 159 L 83 160 L 83 161 L 83 162 L 83 163 L 83 164 L 83 165 L 83 166 L 83 167 L 83 168 L 83 169 L 83 170 L 83 171 L 83 172 L 83 173 L 83 174 L 84 174 L 85 175 L 85 176 L 86 176 L 87 176 L 88 176 L 89 176 L 90 176 L 91 176 L 92 175 L 92 174 L 92 173 L 92 172 L 92 171 L 92 170 L 93 169 L 94 169 L 95 169 L 96 169 L 97 169 L 98 169 L 99 169 L 100 169 L 101 169 L 101 168 L 101 167 L 101 166 L 102 165 L 103 165 L 103 164 L 102 163 L 102 162 L 103 161 L 103 160 L 103 159 L 103 158 L 103 157 L 103 156 L 103 155 L 103 154 L 102 154 L 101 154 L 100 154 L 99 154 L 98 154 L 97 154 Z M 31 124 L 30 125 L 29 125 L 28 125 L 27 126 L 26 127 L 25 128 L 25 129 L 25 130 L 25 131 L 25 132 L 25 133 L 25 134 L 25 135 L 25 136 L 25 137 L 25 138 L 25 139 L 25 140 L 25 141 L 25 142 L 25 143 L 25 144 L 26 145 L 27 145 L 28 145 L 29 146 L 29 147 L 30 147 L 31 147 L 32 148 L 33 148 L 34 148 L 35 148 L 36 148 L 37 148 L 38 148 L 39 148 L 40 148 L 41 148 L 42 148 L 43 148 L 44 148 L 45 147 L 46 147 L 46 146 L 47 145 L 48 145 L 49 145 L 50 144 L 51 144 L 52 145 L 52 146 L 53 147 L 53 148 L 54 148 L 55 148 L 56 148 L 57 148 L 58 148 L 59 148 L 60 148 L 61 148 L 62 148 L 63 148 L 64 148 L 65 148 L 66 148 L 67 148 L 68 148 L 69 147 L 70 147 L 71 147 L 71 146 L 72 145 L 73 145 L 74 145 L 75 144 L 76 144 L 77 145 L 77 146 L 78 146 L 79 147 L 79 148 L 80 148 L 81 148 L 82 148 L 83 148 L 84 148 L 85 148 L 86 148 L 87 148 L 88 148 L 89 148 L 90 148 L 91 148 L 92 148 L 93 148 L 94 148 L 95 147 L 96 147 L 97 147 L 98 146 L 99 146 L 100 145 L 100 144 L 100 143 L 101 142 L 102 142 L 103 143 L 103 144 L 103 145 L 103 146 L 104 146 L 105 146 L 106 146 L 107 146 L 108 146 L 109 146 L 110 146 L 111 146 L 111 145 L 111 144 L 111 143 L 111 142 L 111 141 L 111 140 L 112 139 L 113 139 L 114 139 L 115 139 L 116 139 L 117 139 L 118 139 L 119 139 L 120 139 L 120 138 L 121 137 L 121 136 L 121 135 L 120 134 L 120 133 L 120 132 L 121 131 L 121 130 L 122 129 L 123 129 L 124 129 L 125 130 L 125 131 L 125 132 L 125 133 L 125 134 L 125 135 L 125 136 L 125 137 L 126 138 L 126 139 L 126 140 L 126 141 L 126 142 L 126 143 L 126 144 L 126 145 L 126 146 L 127 146 L 128 147 L 128 148 L 129 148 L 130 148 L 131 148 L 132 148 L 133 148 L 134 148 L 135 148 L 136 148 L 136 147 L 137 146 L 138 146 L 139 146 L 140 146 L 141 146 L 142 146 L 143 147 L 143 148 L 144 148 L 144 147 L 145 146 L 146 146 L 147 146 L 148 146 L 149 146 L 150 146 L 151 146 L 152 146 L 153 146 L 154 147 L 154 148 L 155 148 L 156 148 L 157 148 L 158 148 L 159 148 L 160 148 L 161 148 L 162 148 L 163 148 L 164 148 L 165 148 L 165 147 L 165 146 L 166 145 L 167 145 L 168 145 L 169 146 L 169 147 L 169 148 L 170 148 L 171 148 L 172 148 L 173 148 L 174 148 L 175 148 L 176 148 L 177 148 L 177 147 L 178 146 L 179 146 L 180 146 L 181 146 L 182 146 L 183 146 L 184 146 L 185 146 L 186 146 L 187 146 L 188 146 L 189 146 L 190 146 L 191 147 L 192 147 L 193 147 L 194 148 L 195 148 L 196 148 L 197 148 L 198 148 L 199 148 L 200 148 L 201 148 L 202 148 L 203 148 L 204 148 L 205 148 L 206 148 L 207 148 L 208 147 L 209 147 L 210 146 L 211 145 L 212 144 L 212 143 L 212 142 L 212 141 L 212 140 L 212 139 L 212 138 L 212 137 L 212 136 L 212 135 L 212 134 L 213 133 L 214 133 L 215 134 L 215 135 L 216 136 L 216 137 L 216 138 L 217 139 L 217 140 L 217 141 L 218 142 L 218 143 L 218 144 L 218 145 L 219 146 L 220 146 L 221 146 L 222 146 L 223 146 L 224 146 L 225 146 L 226 146 L 227 145 L 228 145 L 228 144 L 229 143 L 230 143 L 231 144 L 231 145 L 231 146 L 232 146 L 233 146 L 234 146 L 235 146 L 236 146 L 237 146 L 238 146 L 239 146 L 240 146 L 241 145 L 241 144 L 241 143 L 242 142 L 242 141 L 243 140 L 243 139 L 243 138 L 244 137 L 244 136 L 244 135 L 244 134 L 245 133 L 246 133 L 247 134 L 247 135 L 248 136 L 249 136 L 250 137 L 250 138 L 251 139 L 251 140 L 250 141 L 249 141 L 249 142 L 249 143 L 249 144 L 249 145 L 249 146 L 250 146 L 251 146 L 252 146 L 253 147 L 253 148 L 254 148 L 255 148 L 256 148 L 257 148 L 258 148 L 259 148 L 260 148 L 261 148 L 262 148 L 263 148 L 264 148 L 265 147 L 266 147 L 267 147 L 268 146 L 268 145 L 268 144 L 269 143 L 270 143 L 270 142 L 270 141 L 270 140 L 270 139 L 270 138 L 270 137 L 269 136 L 269 135 L 268 134 L 267 133 L 267 132 L 267 131 L 267 130 L 268 129 L 269 129 L 269 128 L 269 127 L 269 126 L 268 126 L 267 126 L 266 126 L 265 126 L 264 126 L 263 126 L 262 126 L 261 126 L 260 126 L 259 126 L 258 125 L 258 124 L 257 124 L 256 124 L 255 124 L 254 124 L 253 125 L 252 125 L 251 125 L 251 126 L 250 127 L 249 127 L 248 127 L 247 126 L 246 126 L 245 125 L 244 125 L 243 125 L 242 125 L 241 126 L 240 127 L 239 127 L 239 128 L 239 129 L 239 130 L 238 131 L 238 132 L 238 133 L 237 134 L 236 134 L 235 133 L 235 132 L 235 131 L 234 130 L 234 129 L 234 128 L 233 127 L 233 126 L 232 125 L 231 125 L 230 125 L 229 125 L 228 125 L 227 125 L 226 126 L 226 127 L 225 128 L 225 129 L 225 130 L 226 131 L 226 132 L 226 133 L 226 134 L 226 135 L 225 136 L 224 136 L 223 135 L 223 134 L 222 133 L 222 132 L 222 131 L 221 130 L 221 129 L 221 128 L 220 128 L 219 127 L 219 126 L 218 125 L 217 125 L 216 125 L 215 126 L 214 126 L 213 126 L 212 126 L 211 126 L 210 126 L 209 125 L 208 125 L 207 125 L 206 125 L 205 126 L 204 126 L 203 126 L 202 126 L 201 126 L 200 126 L 199 126 L 198 126 L 197 125 L 197 124 L 196 124 L 195 124 L 194 125 L 193 125 L 192 125 L 191 125 L 190 126 L 189 127 L 188 128 L 188 129 L 188 130 L 188 131 L 188 132 L 188 133 L 188 134 L 188 135 L 188 136 L 188 137 L 188 138 L 188 139 L 188 140 L 188 141 L 187 142 L 186 142 L 185 143 L 184 143 L 183 143 L 182 143 L 181 143 L 180 143 L 179 143 L 178 143 L 177 143 L 176 142 L 176 141 L 176 140 L 176 139 L 176 138 L 176 137 L 176 136 L 176 135 L 176 134 L 176 133 L 176 132 L 176 131 L 176 130 L 176 129 L 176 128 L 176 127 L 176 126 L 175 126 L 174 126 L 173 126 L 172 126 L 171 126 L 170 126 L 169 126 L 168 126 L 168 127 L 168 128 L 168 129 L 168 130 L 168 131 L 168 132 L 168 133 L 168 134 L 168 135 L 168 136 L 168 137 L 168 138 L 168 139 L 168 140 L 167 141 L 166 141 L 165 141 L 164 141 L 163 141 L 162 141 L 161 141 L 160 141 L 159 141 L 158 141 L 157 141 L 156 141 L 155 141 L 154 140 L 154 139 L 154 138 L 154 137 L 154 136 L 154 135 L 154 134 L 154 133 L 154 132 L 154 131 L 154 130 L 154 129 L 154 128 L 154 127 L 154 126 L 153 126 L 152 125 L 152 124 L 151 124 L 150 124 L 149 124 L 149 125 L 148 126 L 147 126 L 147 127 L 147 128 L 147 129 L 147 130 L 147 131 L 147 132 L 147 133 L 147 134 L 147 135 L 147 136 L 147 137 L 147 138 L 147 139 L 147 140 L 147 141 L 146 142 L 145 142 L 144 142 L 143 142 L 142 142 L 141 142 L 140 141 L 140 140 L 141 139 L 142 139 L 142 138 L 142 137 L 142 136 L 142 135 L 142 134 L 141 133 L 141 132 L 142 131 L 143 131 L 144 131 L 144 130 L 144 129 L 144 128 L 144 127 L 144 126 L 143 126 L 142 126 L 141 126 L 140 126 L 139 126 L 138 126 L 137 126 L 136 126 L 135 126 L 134 126 L 133 126 L 132 126 L 131 126 L 130 126 L 129 126 L 128 126 L 127 126 L 126 125 L 125 125 L 124 126 L 123 126 L 122 126 L 121 126 L 120 126 L 119 126 L 118 126 L 117 126 L 116 126 L 115 126 L 114 126 L 113 126 L 112 126 L 111 126 L 110 126 L 109 126 L 108 126 L 107 126 L 106 126 L 105 125 L 105 124 L 104 124 L 103 125 L 103 126 L 103 127 L 103 128 L 102 129 L 101 129 L 100 128 L 99 127 L 99 126 L 98 126 L 97 126 L 96 125 L 95 125 L 94 125 L 93 124 L 92 124 L 91 124 L 90 124 L 89 124 L 88 124 L 87 124 L 86 124 L 86 125 L 85 126 L 84 126 L 83 126 L 82 126 L 81 126 L 80 126 L 79 126 L 78 126 L 77 126 L 77 127 L 76 128 L 75 128 L 74 127 L 73 127 L 72 127 L 71 126 L 71 125 L 70 125 L 69 125 L 68 126 L 67 126 L 66 125 L 65 125 L 64 124 L 63 124 L 62 124 L 62 125 L 61 126 L 60 126 L 59 126 L 58 126 L 57 126 L 56 126 L 55 126 L 54 126 L 53 126 L 52 126 L 52 127 L 52 128 L 51 129 L 50 129 L 49 128 L 48 128 L 47 127 L 47 126 L 47 125 L 46 125 L 45 125 L 44 124 L 43 124 L 42 124 L 41 124 L 40 124 L 39 124 L 38 124 L 37 124 L 36 124 L 35 124 L 34 124 L 33 124 L 32 124 Z M 254 140 L 255 139 L 256 139 L 257 140 L 257 141 L 257 142 L 256 143 L 255 143 L 254 142 L 254 141 Z M 194 132 L 195 131 L 196 131 L 197 131 L 198 131 L 199 131 L 200 131 L 201 131 L 202 131 L 203 131 L 204 132 L 204 133 L 204 134 L 204 135 L 204 136 L 204 137 L 204 138 L 204 139 L 204 140 L 204 141 L 204 142 L 203 143 L 202 143 L 201 143 L 200 142 L 199 142 L 198 142 L 197 142 L 196 142 L 195 142 L 194 141 L 194 140 L 194 139 L 194 138 L 194 137 L 194 136 L 194 135 L 194 134 L 194 133 Z M 85 132 L 86 131 L 87 131 L 88 131 L 89 131 L 90 131 L 91 131 L 92 131 L 93 132 L 93 133 L 93 134 L 93 135 L 93 136 L 93 137 L 93 138 L 93 139 L 93 140 L 92 141 L 91 141 L 90 141 L 89 141 L 88 141 L 87 141 L 86 141 L 85 140 L 85 139 L 85 138 L 85 137 L 85 136 L 85 135 L 85 134 L 85 133 Z M 60 132 L 61 131 L 62 131 L 63 131 L 64 131 L 65 131 L 66 131 L 67 131 L 68 132 L 69 133 L 69 134 L 68 135 L 68 136 L 68 137 L 68 138 L 68 139 L 68 140 L 67 141 L 66 141 L 65 141 L 64 141 L 63 141 L 62 141 L 61 141 L 60 140 L 60 139 L 60 138 L 60 137 L 60 136 L 60 135 L 60 134 L 60 133 Z M 33 132 L 34 131 L 35 131 L 36 131 L 37 131 L 38 131 L 39 131 L 40 131 L 41 131 L 42 132 L 42 133 L 42 134 L 42 135 L 42 136 L 42 137 L 42 138 L 42 139 L 42 140 L 41 141 L 40 141 L 39 141 L 38 141 L 37 141 L 36 141 L 35 141 L 34 141 L 33 140 L 33 139 L 33 138 L 33 137 L 33 136 L 33 135 L 33 134 L 33 133 Z M 205 55 L 204 56 L 203 56 L 202 57 L 201 57 L 200 58 L 199 58 L 199 59 L 199 60 L 199 61 L 199 62 L 199 63 L 199 64 L 199 65 L 199 66 L 199 67 L 199 68 L 199 69 L 199 70 L 199 71 L 199 72 L 199 73 L 199 74 L 199 75 L 199 76 L 198 77 L 197 78 L 196 78 L 195 79 L 194 79 L 193 80 L 192 80 L 191 81 L 191 82 L 190 83 L 189 83 L 188 84 L 187 84 L 186 84 L 185 84 L 184 84 L 183 85 L 182 85 L 181 86 L 181 87 L 180 88 L 179 88 L 178 88 L 178 89 L 179 90 L 180 90 L 181 91 L 182 91 L 183 92 L 184 92 L 185 93 L 186 93 L 187 92 L 188 92 L 189 92 L 190 91 L 191 91 L 192 91 L 193 90 L 194 89 L 195 89 L 196 88 L 197 88 L 198 87 L 198 86 L 199 85 L 200 85 L 201 85 L 202 85 L 203 85 L 204 84 L 205 84 L 206 83 L 207 82 L 207 81 L 208 80 L 209 80 L 209 79 L 209 78 L 209 77 L 209 76 L 209 75 L 209 74 L 209 73 L 209 72 L 209 71 L 209 70 L 209 69 L 209 68 L 209 67 L 209 66 L 209 65 L 209 64 L 209 63 L 209 62 L 209 61 L 209 60 L 209 59 L 209 58 L 209 57 L 209 56 L 209 55 L 208 55 L 207 55 L 206 55 Z M 175 54 L 174 55 L 173 55 L 172 56 L 172 57 L 172 58 L 171 59 L 170 59 L 170 60 L 170 61 L 169 62 L 168 63 L 167 63 L 166 64 L 165 64 L 164 65 L 163 65 L 162 66 L 161 66 L 160 67 L 159 67 L 158 68 L 157 69 L 156 69 L 155 70 L 154 71 L 153 71 L 152 71 L 151 72 L 150 73 L 150 74 L 150 75 L 150 76 L 150 77 L 150 78 L 150 79 L 150 80 L 150 81 L 150 82 L 150 83 L 150 84 L 150 85 L 150 86 L 150 87 L 150 88 L 150 89 L 150 90 L 150 91 L 150 92 L 150 93 L 150 94 L 150 95 L 150 96 L 150 97 L 150 98 L 150 99 L 150 100 L 150 101 L 150 102 L 150 103 L 150 104 L 150 105 L 150 106 L 150 107 L 150 108 L 150 109 L 150 110 L 151 111 L 151 112 L 152 112 L 153 111 L 154 110 L 155 110 L 156 109 L 157 109 L 158 108 L 158 107 L 159 106 L 160 106 L 161 106 L 162 106 L 163 106 L 164 105 L 165 105 L 166 104 L 167 104 L 168 103 L 169 102 L 170 102 L 171 101 L 172 101 L 173 100 L 174 100 L 175 99 L 176 99 L 177 98 L 178 98 L 178 97 L 178 96 L 178 95 L 177 95 L 176 94 L 176 93 L 175 93 L 174 93 L 173 92 L 173 91 L 172 91 L 171 92 L 171 93 L 170 94 L 169 94 L 168 94 L 167 94 L 166 94 L 165 95 L 164 96 L 163 96 L 162 97 L 161 97 L 160 97 L 159 96 L 159 95 L 159 94 L 159 93 L 159 92 L 159 91 L 159 90 L 159 89 L 159 88 L 159 87 L 159 86 L 159 85 L 159 84 L 159 83 L 159 82 L 159 81 L 159 80 L 159 79 L 159 78 L 160 77 L 161 76 L 162 76 L 163 76 L 163 75 L 164 74 L 165 74 L 166 74 L 167 73 L 168 73 L 169 72 L 170 72 L 171 71 L 172 71 L 173 70 L 174 70 L 175 69 L 176 69 L 177 68 L 178 68 L 179 67 L 180 66 L 180 65 L 180 64 L 181 63 L 182 63 L 182 62 L 182 61 L 182 60 L 182 59 L 182 58 L 181 58 L 180 57 L 179 56 L 178 56 L 177 55 L 177 54 L 176 54 Z M 116 54 L 116 55 L 115 56 L 114 56 L 113 56 L 113 57 L 113 58 L 112 59 L 111 59 L 111 60 L 111 61 L 111 62 L 112 63 L 112 64 L 112 65 L 113 66 L 114 66 L 115 67 L 116 67 L 117 67 L 118 67 L 119 67 L 120 68 L 120 69 L 121 70 L 122 70 L 123 71 L 124 71 L 125 72 L 126 73 L 127 73 L 128 73 L 129 73 L 130 73 L 131 74 L 132 74 L 133 75 L 133 76 L 134 77 L 135 78 L 135 79 L 135 80 L 135 81 L 135 82 L 135 83 L 135 84 L 135 85 L 135 86 L 135 87 L 135 88 L 135 89 L 135 90 L 135 91 L 135 92 L 135 93 L 135 94 L 135 95 L 135 96 L 134 97 L 133 97 L 132 97 L 131 96 L 130 96 L 129 95 L 128 94 L 127 94 L 126 94 L 125 94 L 124 94 L 123 93 L 122 93 L 121 92 L 121 91 L 120 91 L 119 92 L 119 93 L 118 94 L 117 94 L 116 95 L 115 95 L 115 96 L 115 97 L 116 97 L 117 98 L 118 99 L 119 99 L 120 99 L 121 100 L 122 101 L 123 101 L 124 102 L 125 102 L 126 103 L 127 103 L 128 103 L 129 103 L 130 104 L 131 104 L 132 105 L 133 105 L 134 106 L 134 107 L 135 108 L 136 108 L 137 108 L 138 108 L 139 109 L 140 109 L 141 110 L 141 111 L 142 112 L 143 112 L 144 111 L 144 110 L 144 109 L 144 108 L 144 107 L 144 106 L 144 105 L 144 104 L 144 103 L 144 102 L 144 101 L 144 100 L 144 99 L 144 98 L 144 97 L 144 96 L 144 95 L 144 94 L 144 93 L 144 92 L 144 91 L 144 90 L 144 89 L 144 88 L 144 87 L 144 86 L 144 85 L 144 84 L 144 83 L 144 82 L 144 81 L 144 80 L 144 79 L 144 78 L 144 77 L 144 76 L 144 75 L 144 74 L 144 73 L 143 73 L 142 73 L 141 72 L 140 72 L 139 71 L 139 70 L 138 69 L 137 69 L 136 68 L 135 68 L 134 67 L 133 67 L 132 66 L 131 66 L 130 65 L 129 64 L 128 64 L 127 63 L 126 63 L 125 63 L 124 62 L 124 61 L 124 60 L 124 59 L 123 59 L 122 58 L 122 57 L 122 56 L 121 55 L 120 55 L 119 54 L 118 54 L 117 54 Z M 87 54 L 86 55 L 85 55 L 85 56 L 85 57 L 85 58 L 85 59 L 85 60 L 85 61 L 85 62 L 85 63 L 85 64 L 85 65 L 85 66 L 85 67 L 85 68 L 85 69 L 85 70 L 85 71 L 85 72 L 85 73 L 85 74 L 85 75 L 85 76 L 85 77 L 85 78 L 85 79 L 85 80 L 86 81 L 87 82 L 88 82 L 89 82 L 90 82 L 91 83 L 91 84 L 92 85 L 93 85 L 94 86 L 95 86 L 96 87 L 97 87 L 98 88 L 99 88 L 100 88 L 101 88 L 102 89 L 103 89 L 104 90 L 104 91 L 105 92 L 106 92 L 107 93 L 108 93 L 108 92 L 109 91 L 110 91 L 111 90 L 112 90 L 113 90 L 114 90 L 115 90 L 115 89 L 115 88 L 115 87 L 114 86 L 113 86 L 112 85 L 111 84 L 110 84 L 109 83 L 108 83 L 107 82 L 106 82 L 105 82 L 104 81 L 103 80 L 102 80 L 101 80 L 100 80 L 99 80 L 98 79 L 97 79 L 96 78 L 95 78 L 94 77 L 94 76 L 94 75 L 94 74 L 94 73 L 94 72 L 94 71 L 94 70 L 94 69 L 94 68 L 94 67 L 94 66 L 94 65 L 94 64 L 94 63 L 94 62 L 93 61 L 93 60 L 93 59 L 93 58 L 93 57 L 92 57 L 91 56 L 90 56 L 89 55 L 88 54 Z M 155 52 L 155 53 L 156 53 L 156 52 Z M 130 40 L 130 41 L 131 41 L 131 40 Z M 207 38 L 206 39 L 206 40 L 205 41 L 204 41 L 203 41 L 202 41 L 201 41 L 200 42 L 199 43 L 198 43 L 197 44 L 196 44 L 195 45 L 195 46 L 194 47 L 193 47 L 192 48 L 191 48 L 190 48 L 189 48 L 188 48 L 187 49 L 187 50 L 186 51 L 185 51 L 185 52 L 185 53 L 186 54 L 186 55 L 187 56 L 187 57 L 187 58 L 187 59 L 187 60 L 187 61 L 187 62 L 187 63 L 187 64 L 187 65 L 187 66 L 187 67 L 187 68 L 187 69 L 186 70 L 185 70 L 184 71 L 183 71 L 182 72 L 181 72 L 180 73 L 180 74 L 179 75 L 178 75 L 177 76 L 176 76 L 175 77 L 174 77 L 173 78 L 172 78 L 171 79 L 170 79 L 169 79 L 168 79 L 167 80 L 166 80 L 165 81 L 164 82 L 164 83 L 164 84 L 164 85 L 164 86 L 164 87 L 164 88 L 164 89 L 165 90 L 166 90 L 167 89 L 168 88 L 169 88 L 170 88 L 171 87 L 172 87 L 173 86 L 174 86 L 175 85 L 175 84 L 176 83 L 177 83 L 178 82 L 179 82 L 180 82 L 181 82 L 182 81 L 183 80 L 184 80 L 185 80 L 186 79 L 187 79 L 188 78 L 189 78 L 190 77 L 191 77 L 192 76 L 193 75 L 194 74 L 194 73 L 194 72 L 194 71 L 194 70 L 194 69 L 194 68 L 194 67 L 194 66 L 194 65 L 194 64 L 194 63 L 194 62 L 194 61 L 194 60 L 194 59 L 194 58 L 194 57 L 195 56 L 196 55 L 197 55 L 198 54 L 199 54 L 200 53 L 201 53 L 202 52 L 203 51 L 204 51 L 205 50 L 206 50 L 207 49 L 207 48 L 208 47 L 209 47 L 209 46 L 208 46 L 207 45 L 207 44 L 207 43 L 208 42 L 209 42 L 209 41 L 209 40 L 209 39 L 208 38 Z M 86 38 L 85 39 L 85 40 L 85 41 L 85 42 L 85 43 L 85 44 L 85 45 L 85 46 L 85 47 L 86 47 L 87 48 L 87 49 L 88 50 L 89 51 L 90 51 L 91 52 L 92 52 L 93 53 L 94 53 L 95 53 L 96 53 L 97 53 L 98 54 L 98 55 L 99 56 L 99 57 L 99 58 L 99 59 L 99 60 L 99 61 L 99 62 L 99 63 L 99 64 L 99 65 L 99 66 L 99 67 L 99 68 L 99 69 L 99 70 L 99 71 L 99 72 L 99 73 L 100 74 L 101 75 L 102 75 L 103 76 L 104 77 L 105 77 L 106 77 L 107 78 L 108 79 L 109 79 L 110 80 L 111 80 L 112 81 L 113 82 L 114 82 L 115 82 L 116 82 L 117 82 L 118 83 L 118 84 L 119 85 L 120 85 L 121 86 L 122 87 L 123 87 L 124 87 L 125 87 L 126 87 L 127 88 L 127 89 L 128 90 L 129 90 L 129 89 L 129 88 L 129 87 L 129 86 L 129 85 L 129 84 L 129 83 L 129 82 L 128 81 L 127 81 L 126 80 L 125 80 L 124 79 L 123 79 L 122 78 L 121 78 L 120 77 L 119 77 L 118 76 L 118 75 L 117 74 L 116 74 L 115 73 L 114 72 L 113 72 L 112 72 L 111 72 L 110 72 L 109 71 L 108 71 L 107 70 L 107 69 L 108 68 L 108 67 L 108 66 L 108 65 L 108 64 L 108 63 L 108 62 L 108 61 L 108 60 L 108 59 L 108 58 L 108 57 L 108 56 L 108 55 L 108 54 L 108 53 L 108 52 L 108 51 L 107 51 L 106 50 L 106 49 L 106 48 L 105 48 L 104 47 L 103 47 L 102 46 L 101 46 L 100 45 L 99 45 L 98 45 L 97 45 L 96 45 L 95 44 L 95 43 L 94 42 L 93 42 L 92 41 L 91 40 L 90 40 L 89 40 L 88 39 L 87 38 Z M 162 21 L 162 22 L 163 22 L 164 22 L 165 22 L 166 22 L 167 22 L 168 22 L 169 22 L 170 22 L 170 21 L 169 21 L 168 21 L 167 21 L 166 21 L 165 21 L 164 21 L 163 21 Z M 124 21 L 124 22 L 125 22 L 126 22 L 126 21 L 125 21 Z M 85 10 L 85 11 L 85 12 L 85 13 L 85 14 L 85 15 L 85 16 L 85 17 L 85 18 L 85 19 L 85 20 L 85 21 L 85 22 L 85 23 L 85 24 L 85 25 L 85 26 L 85 27 L 85 28 L 85 29 L 85 30 L 85 31 L 85 32 L 86 32 L 87 32 L 88 33 L 89 33 L 90 34 L 90 35 L 91 36 L 92 37 L 93 37 L 94 38 L 95 38 L 96 39 L 97 39 L 98 39 L 99 40 L 100 40 L 101 41 L 102 41 L 103 42 L 104 42 L 105 42 L 106 42 L 107 43 L 108 43 L 109 44 L 109 45 L 110 45 L 111 46 L 112 46 L 113 47 L 114 47 L 115 48 L 116 49 L 117 49 L 118 50 L 119 50 L 120 50 L 121 51 L 122 52 L 123 53 L 124 53 L 125 53 L 126 54 L 127 55 L 128 55 L 129 56 L 130 57 L 131 57 L 132 57 L 132 56 L 132 55 L 132 54 L 133 53 L 134 53 L 134 52 L 134 51 L 134 50 L 134 49 L 133 49 L 132 49 L 131 48 L 130 48 L 129 47 L 129 46 L 128 45 L 127 44 L 126 44 L 125 43 L 124 43 L 123 43 L 122 43 L 121 43 L 120 42 L 119 42 L 118 41 L 117 41 L 116 40 L 116 39 L 115 38 L 114 38 L 113 37 L 112 36 L 111 36 L 110 35 L 109 35 L 108 34 L 107 34 L 106 34 L 105 34 L 104 34 L 103 33 L 102 33 L 101 32 L 101 31 L 100 30 L 99 29 L 98 29 L 97 28 L 96 28 L 95 27 L 94 26 L 94 25 L 94 24 L 94 23 L 94 22 L 94 21 L 94 20 L 94 19 L 94 18 L 94 17 L 94 16 L 94 15 L 94 14 L 94 13 L 94 12 L 94 11 L 94 10 L 93 10 L 92 10 L 91 10 L 90 10 L 89 10 L 88 10 L 87 10 L 86 10 Z M 204 9 L 203 10 L 202 10 L 201 10 L 200 10 L 199 10 L 199 11 L 199 12 L 199 13 L 199 14 L 199 15 L 199 16 L 199 17 L 199 18 L 199 19 L 199 20 L 199 21 L 199 22 L 199 23 L 199 24 L 199 25 L 199 26 L 199 27 L 198 28 L 197 29 L 196 29 L 195 30 L 194 30 L 193 31 L 192 31 L 191 32 L 190 32 L 189 33 L 188 33 L 187 34 L 187 35 L 186 36 L 185 36 L 184 36 L 183 36 L 182 37 L 181 37 L 180 38 L 179 38 L 178 39 L 177 39 L 176 40 L 176 41 L 175 42 L 174 42 L 173 43 L 172 43 L 171 43 L 170 43 L 169 44 L 168 44 L 167 45 L 166 45 L 165 46 L 164 46 L 163 47 L 163 48 L 162 49 L 161 49 L 160 49 L 160 50 L 160 51 L 160 52 L 160 53 L 160 54 L 160 55 L 160 56 L 160 57 L 161 57 L 162 58 L 163 58 L 164 57 L 165 56 L 166 56 L 167 55 L 168 54 L 169 54 L 170 53 L 170 52 L 171 51 L 172 51 L 173 51 L 174 51 L 175 50 L 176 50 L 177 49 L 178 49 L 179 48 L 179 47 L 180 46 L 181 46 L 182 45 L 183 45 L 184 44 L 185 44 L 186 43 L 187 43 L 188 42 L 189 42 L 190 41 L 191 41 L 192 41 L 193 41 L 194 41 L 195 40 L 196 40 L 197 39 L 198 39 L 199 38 L 200 38 L 201 37 L 202 36 L 203 36 L 204 35 L 205 35 L 206 34 L 206 33 L 207 32 L 208 31 L 209 31 L 209 30 L 209 29 L 209 28 L 209 27 L 209 26 L 209 25 L 209 24 L 209 23 L 209 22 L 209 21 L 209 20 L 209 19 L 209 18 L 209 17 L 209 16 L 209 15 L 209 14 L 209 13 L 209 12 L 209 11 L 209 10 L 208 10 L 207 10 L 206 9 L 205 9 Z M 101 8 L 101 9 L 100 10 L 99 10 L 99 11 L 99 12 L 99 13 L 99 14 L 99 15 L 99 16 L 99 17 L 99 18 L 99 19 L 99 20 L 99 21 L 99 22 L 99 23 L 99 24 L 100 25 L 101 26 L 102 26 L 103 26 L 104 27 L 105 28 L 106 28 L 107 29 L 108 29 L 109 28 L 109 27 L 109 26 L 109 25 L 109 24 L 109 23 L 109 22 L 109 21 L 109 20 L 109 19 L 110 18 L 111 18 L 112 18 L 113 18 L 114 18 L 115 18 L 116 18 L 117 18 L 118 18 L 119 18 L 120 18 L 121 18 L 122 18 L 123 18 L 124 18 L 125 18 L 126 18 L 127 18 L 128 18 L 129 18 L 130 18 L 131 18 L 132 18 L 133 18 L 134 18 L 135 18 L 136 18 L 137 18 L 138 18 L 139 18 L 140 18 L 141 18 L 142 18 L 143 18 L 144 18 L 145 18 L 146 18 L 147 18 L 148 18 L 149 18 L 150 18 L 151 18 L 152 18 L 153 18 L 154 18 L 155 18 L 156 18 L 157 18 L 158 18 L 158 17 L 159 16 L 160 16 L 161 16 L 162 16 L 163 16 L 164 16 L 165 17 L 165 18 L 166 18 L 167 18 L 168 18 L 169 18 L 170 18 L 171 18 L 172 18 L 173 18 L 174 18 L 175 18 L 176 18 L 177 18 L 178 18 L 179 18 L 180 18 L 181 18 L 182 18 L 183 18 L 184 18 L 185 19 L 185 20 L 185 21 L 185 22 L 185 23 L 185 24 L 185 25 L 185 26 L 185 27 L 185 28 L 186 28 L 187 27 L 188 27 L 189 26 L 190 26 L 191 26 L 192 26 L 193 26 L 194 25 L 194 24 L 194 23 L 194 22 L 194 21 L 194 20 L 194 19 L 194 18 L 194 17 L 194 16 L 194 15 L 194 14 L 194 13 L 194 12 L 194 11 L 194 10 L 193 9 L 192 9 L 191 10 L 190 10 L 189 9 L 189 8 L 188 8 L 187 8 L 186 8 L 185 8 L 184 8 L 183 8 L 182 8 L 181 8 L 180 8 L 179 8 L 178 8 L 177 8 L 176 8 L 175 8 L 174 8 L 173 8 L 172 8 L 171 8 L 170 8 L 169 8 L 168 8 L 167 8 L 166 8 L 165 8 L 164 8 L 163 8 L 162 8 L 161 8 L 160 8 L 159 8 L 158 8 L 157 8 L 156 8 L 155 8 L 154 8 L 153 8 L 152 8 L 151 8 L 150 8 L 149 8 L 148 8 L 147 8 L 146 8 L 145 8 L 144 8 L 143 8 L 142 8 L 141 8 L 140 8 L 139 8 L 138 8 L 137 8 L 136 8 L 135 8 L 134 8 L 133 8 L 133 9 L 132 10 L 131 10 L 130 10 L 129 10 L 128 10 L 127 10 L 126 10 L 125 10 L 124 10 L 123 9 L 123 8 L 122 8 L 121 8 L 120 8 L 119 8 L 118 8 L 117 8 L 116 8 L 115 8 L 115 9 L 114 10 L 113 10 L 112 10 L 111 10 L 110 10 L 109 9 L 109 8 L 108 8 L 107 8 L 106 8 L 105 8 L 104 8 L 103 8 L 102 8 Z" fill="#FFFFFF"/>
<path d="M 147 46 L 146 47 L 145 47 L 144 48 L 143 48 L 142 49 L 141 49 L 140 50 L 140 51 L 139 52 L 139 53 L 139 54 L 139 55 L 139 56 L 139 57 L 139 58 L 139 59 L 139 60 L 139 61 L 139 62 L 140 63 L 141 64 L 142 64 L 143 65 L 144 65 L 145 66 L 146 67 L 147 67 L 148 67 L 149 66 L 150 65 L 151 65 L 152 64 L 153 64 L 154 63 L 155 62 L 155 61 L 155 60 L 155 59 L 155 58 L 155 57 L 155 56 L 155 55 L 155 54 L 154 53 L 154 52 L 154 51 L 154 50 L 153 49 L 152 49 L 151 48 L 150 48 L 149 47 L 148 46 Z M 151 23 L 151 24 L 151 25 L 151 26 L 151 27 L 151 28 L 151 29 L 151 30 L 151 31 L 151 32 L 151 33 L 151 34 L 151 35 L 151 36 L 151 37 L 151 38 L 151 39 L 151 40 L 152 41 L 153 42 L 154 43 L 155 43 L 156 43 L 157 43 L 158 43 L 159 42 L 160 41 L 161 41 L 162 40 L 163 40 L 164 39 L 165 39 L 166 38 L 167 37 L 168 37 L 169 36 L 170 36 L 171 35 L 172 35 L 173 34 L 174 34 L 175 33 L 176 33 L 177 32 L 178 31 L 179 31 L 179 30 L 179 29 L 179 28 L 179 27 L 179 26 L 179 25 L 179 24 L 178 23 L 177 23 L 176 23 L 175 23 L 174 23 L 173 23 L 172 23 L 171 23 L 170 23 L 169 23 L 168 23 L 167 23 L 166 23 L 165 23 L 164 23 L 163 23 L 162 23 L 161 23 L 160 23 L 159 23 L 158 23 L 157 23 L 156 23 L 155 23 L 154 23 L 153 23 L 152 23 Z M 115 23 L 115 24 L 115 25 L 115 26 L 115 27 L 115 28 L 115 29 L 115 30 L 115 31 L 116 31 L 117 32 L 118 33 L 119 33 L 120 34 L 121 34 L 122 35 L 123 35 L 124 36 L 125 36 L 126 37 L 127 37 L 128 38 L 129 38 L 130 39 L 131 39 L 132 40 L 133 41 L 134 41 L 135 42 L 136 42 L 137 43 L 138 43 L 139 43 L 140 43 L 141 43 L 142 42 L 143 41 L 143 40 L 143 39 L 143 38 L 143 37 L 143 36 L 143 35 L 143 34 L 143 33 L 143 32 L 143 31 L 143 30 L 143 29 L 143 28 L 143 27 L 143 26 L 143 25 L 143 24 L 143 23 L 142 23 L 141 23 L 140 23 L 139 23 L 138 23 L 137 23 L 136 23 L 135 23 L 134 23 L 133 23 L 132 23 L 131 23 L 130 23 L 129 23 L 128 23 L 127 23 L 126 23 L 125 23 L 124 23 L 123 23 L 122 23 L 121 23 L 120 23 L 119 23 L 118 23 L 117 23 L 116 23 Z" fill="#2f7f5f"/>
</g></svg>