<svg xmlns="http://www.w3.org/2000/svg" width="175" height="125" viewBox="0 0 175 125">
<g fill-rule="evenodd">
<path d="M 140 124 L 141 124 L 142 124 L 141 124 Z M 94 124 L 95 124 L 96 124 L 97 124 L 96 124 L 95 124 Z M 31 124 L 32 124 L 33 124 L 34 124 L 35 124 L 36 124 L 37 124 L 38 124 L 37 124 L 36 124 L 35 124 L 34 124 L 33 124 L 32 124 Z M 7 124 L 8 124 L 9 124 L 8 124 Z M 150 55 L 149 56 L 148 56 L 147 57 L 146 57 L 145 58 L 144 58 L 144 59 L 144 60 L 144 61 L 144 62 L 144 63 L 144 64 L 144 65 L 144 66 L 144 67 L 144 68 L 144 69 L 144 70 L 144 71 L 144 72 L 144 73 L 144 74 L 144 75 L 144 76 L 143 77 L 142 78 L 141 78 L 140 79 L 139 79 L 138 80 L 137 80 L 136 81 L 136 82 L 135 83 L 134 83 L 133 84 L 132 84 L 131 84 L 130 84 L 129 84 L 128 85 L 127 85 L 126 86 L 126 87 L 125 88 L 124 88 L 123 88 L 123 89 L 124 90 L 125 90 L 126 91 L 127 91 L 128 92 L 129 92 L 130 93 L 131 93 L 132 92 L 133 92 L 134 92 L 135 91 L 136 91 L 137 91 L 138 90 L 139 89 L 140 89 L 141 88 L 142 88 L 143 87 L 143 86 L 144 85 L 145 85 L 146 85 L 147 85 L 148 85 L 149 84 L 150 84 L 151 83 L 152 82 L 152 81 L 153 80 L 154 80 L 154 79 L 154 78 L 154 77 L 154 76 L 154 75 L 154 74 L 154 73 L 154 72 L 154 71 L 154 70 L 154 69 L 154 68 L 154 67 L 154 66 L 154 65 L 154 64 L 154 63 L 154 62 L 154 61 L 154 60 L 154 59 L 154 58 L 154 57 L 154 56 L 154 55 L 153 55 L 152 55 L 151 55 Z M 120 54 L 119 55 L 118 55 L 117 56 L 117 57 L 117 58 L 116 59 L 115 59 L 115 60 L 115 61 L 114 62 L 113 63 L 112 63 L 111 64 L 110 64 L 109 65 L 108 65 L 107 66 L 106 66 L 105 67 L 104 67 L 103 68 L 102 69 L 101 69 L 100 70 L 99 71 L 98 71 L 97 71 L 96 72 L 95 73 L 95 74 L 95 75 L 95 76 L 95 77 L 95 78 L 95 79 L 95 80 L 95 81 L 95 82 L 95 83 L 95 84 L 95 85 L 95 86 L 95 87 L 95 88 L 95 89 L 95 90 L 95 91 L 95 92 L 95 93 L 95 94 L 95 95 L 95 96 L 95 97 L 95 98 L 95 99 L 95 100 L 95 101 L 95 102 L 95 103 L 95 104 L 95 105 L 95 106 L 95 107 L 95 108 L 95 109 L 95 110 L 96 111 L 96 112 L 97 112 L 98 111 L 99 110 L 100 110 L 101 109 L 102 109 L 103 108 L 103 107 L 104 106 L 105 106 L 106 106 L 107 106 L 108 106 L 109 105 L 110 105 L 111 104 L 112 104 L 113 103 L 114 102 L 115 102 L 116 101 L 117 101 L 118 100 L 119 100 L 120 99 L 121 99 L 122 98 L 123 98 L 123 97 L 123 96 L 123 95 L 122 95 L 121 94 L 121 93 L 120 93 L 119 93 L 118 92 L 118 91 L 117 91 L 116 92 L 116 93 L 115 94 L 114 94 L 113 94 L 112 94 L 111 94 L 110 95 L 109 96 L 108 96 L 107 97 L 106 97 L 105 97 L 104 96 L 104 95 L 104 94 L 104 93 L 104 92 L 104 91 L 104 90 L 104 89 L 104 88 L 104 87 L 104 86 L 104 85 L 104 84 L 104 83 L 104 82 L 104 81 L 104 80 L 104 79 L 104 78 L 105 77 L 106 76 L 107 76 L 108 76 L 108 75 L 109 74 L 110 74 L 111 74 L 112 73 L 113 73 L 114 72 L 115 72 L 116 71 L 117 71 L 118 70 L 119 70 L 120 69 L 121 69 L 122 68 L 123 68 L 124 67 L 125 66 L 125 65 L 125 64 L 126 63 L 127 63 L 127 62 L 127 61 L 127 60 L 127 59 L 127 58 L 126 58 L 125 57 L 124 56 L 123 56 L 122 55 L 122 54 L 121 54 Z M 61 54 L 61 55 L 60 56 L 59 56 L 58 56 L 58 57 L 58 58 L 57 59 L 56 59 L 56 60 L 56 61 L 56 62 L 57 63 L 57 64 L 57 65 L 58 66 L 59 66 L 60 67 L 61 67 L 62 67 L 63 67 L 64 67 L 65 68 L 65 69 L 66 70 L 67 70 L 68 71 L 69 71 L 70 72 L 71 73 L 72 73 L 73 73 L 74 73 L 75 73 L 76 74 L 77 74 L 78 75 L 78 76 L 79 77 L 80 78 L 80 79 L 80 80 L 80 81 L 80 82 L 80 83 L 80 84 L 80 85 L 80 86 L 80 87 L 80 88 L 80 89 L 80 90 L 80 91 L 80 92 L 80 93 L 80 94 L 80 95 L 80 96 L 79 97 L 78 97 L 77 97 L 76 96 L 75 96 L 74 95 L 73 94 L 72 94 L 71 94 L 70 94 L 69 94 L 68 93 L 67 93 L 66 92 L 66 91 L 65 91 L 64 92 L 64 93 L 63 94 L 62 94 L 61 95 L 60 95 L 60 96 L 60 97 L 61 97 L 62 98 L 63 99 L 64 99 L 65 99 L 66 100 L 67 101 L 68 101 L 69 102 L 70 102 L 71 103 L 72 103 L 73 103 L 74 103 L 75 104 L 76 104 L 77 105 L 78 105 L 79 106 L 79 107 L 80 108 L 81 108 L 82 108 L 83 108 L 84 109 L 85 109 L 86 110 L 86 111 L 87 112 L 88 112 L 89 111 L 89 110 L 89 109 L 89 108 L 89 107 L 89 106 L 89 105 L 89 104 L 89 103 L 89 102 L 89 101 L 89 100 L 89 99 L 89 98 L 89 97 L 89 96 L 89 95 L 89 94 L 89 93 L 89 92 L 89 91 L 89 90 L 89 89 L 89 88 L 89 87 L 89 86 L 89 85 L 89 84 L 89 83 L 89 82 L 89 81 L 89 80 L 89 79 L 89 78 L 89 77 L 89 76 L 89 75 L 89 74 L 89 73 L 88 73 L 87 73 L 86 72 L 85 72 L 84 71 L 84 70 L 83 69 L 82 69 L 81 68 L 80 68 L 79 67 L 78 67 L 77 66 L 76 66 L 75 65 L 74 64 L 73 64 L 72 63 L 71 63 L 70 63 L 69 62 L 69 61 L 69 60 L 69 59 L 68 59 L 67 58 L 67 57 L 67 56 L 66 55 L 65 55 L 64 54 L 63 54 L 62 54 Z M 32 54 L 31 55 L 30 55 L 30 56 L 30 57 L 30 58 L 30 59 L 30 60 L 30 61 L 30 62 L 30 63 L 30 64 L 30 65 L 30 66 L 30 67 L 30 68 L 30 69 L 30 70 L 30 71 L 30 72 L 30 73 L 30 74 L 30 75 L 30 76 L 30 77 L 30 78 L 30 79 L 30 80 L 31 81 L 32 82 L 33 82 L 34 82 L 35 82 L 36 83 L 36 84 L 37 85 L 38 85 L 39 86 L 40 86 L 41 87 L 42 87 L 43 88 L 44 88 L 45 88 L 46 88 L 47 89 L 48 89 L 49 90 L 49 91 L 50 92 L 51 92 L 52 93 L 53 93 L 53 92 L 54 91 L 55 91 L 56 90 L 57 90 L 58 90 L 59 90 L 60 90 L 60 89 L 60 88 L 60 87 L 59 86 L 58 86 L 57 85 L 56 84 L 55 84 L 54 83 L 53 83 L 52 82 L 51 82 L 50 82 L 49 81 L 48 80 L 47 80 L 46 80 L 45 80 L 44 80 L 43 79 L 42 79 L 41 78 L 40 78 L 39 77 L 39 76 L 39 75 L 39 74 L 39 73 L 39 72 L 39 71 L 39 70 L 39 69 L 39 68 L 39 67 L 39 66 L 39 65 L 39 64 L 39 63 L 39 62 L 38 61 L 38 60 L 38 59 L 38 58 L 38 57 L 37 57 L 36 56 L 35 56 L 34 55 L 33 54 Z M 100 52 L 100 53 L 101 53 L 101 52 Z M 75 40 L 75 41 L 76 41 L 76 40 Z M 152 38 L 151 39 L 151 40 L 150 41 L 149 41 L 148 41 L 147 41 L 146 41 L 145 42 L 144 43 L 143 43 L 142 44 L 141 44 L 140 45 L 140 46 L 139 47 L 138 47 L 137 48 L 136 48 L 135 48 L 134 48 L 133 48 L 132 49 L 132 50 L 131 51 L 130 51 L 130 52 L 130 53 L 131 54 L 131 55 L 132 56 L 132 57 L 132 58 L 132 59 L 132 60 L 132 61 L 132 62 L 132 63 L 132 64 L 132 65 L 132 66 L 132 67 L 132 68 L 132 69 L 131 70 L 130 70 L 129 71 L 128 71 L 127 72 L 126 72 L 125 73 L 125 74 L 124 75 L 123 75 L 122 76 L 121 76 L 120 77 L 119 77 L 118 78 L 117 78 L 116 79 L 115 79 L 114 79 L 113 79 L 112 80 L 111 80 L 110 81 L 109 82 L 109 83 L 109 84 L 109 85 L 109 86 L 109 87 L 109 88 L 109 89 L 110 90 L 111 90 L 112 89 L 113 88 L 114 88 L 115 88 L 116 87 L 117 87 L 118 86 L 119 86 L 120 85 L 120 84 L 121 83 L 122 83 L 123 82 L 124 82 L 125 82 L 126 82 L 127 81 L 128 80 L 129 80 L 130 80 L 131 79 L 132 79 L 133 78 L 134 78 L 135 77 L 136 77 L 137 76 L 138 75 L 139 74 L 139 73 L 139 72 L 139 71 L 139 70 L 139 69 L 139 68 L 139 67 L 139 66 L 139 65 L 139 64 L 139 63 L 139 62 L 139 61 L 139 60 L 139 59 L 139 58 L 139 57 L 140 56 L 141 55 L 142 55 L 143 54 L 144 54 L 145 53 L 146 53 L 147 52 L 148 51 L 149 51 L 150 50 L 151 50 L 152 49 L 152 48 L 153 47 L 154 47 L 154 46 L 153 46 L 152 45 L 152 44 L 152 43 L 153 42 L 154 42 L 154 41 L 154 40 L 154 39 L 153 38 Z M 31 38 L 30 39 L 30 40 L 30 41 L 30 42 L 30 43 L 30 44 L 30 45 L 30 46 L 30 47 L 31 47 L 32 48 L 32 49 L 33 50 L 34 51 L 35 51 L 36 52 L 37 52 L 38 53 L 39 53 L 40 53 L 41 53 L 42 53 L 43 54 L 43 55 L 44 56 L 44 57 L 44 58 L 44 59 L 44 60 L 44 61 L 44 62 L 44 63 L 44 64 L 44 65 L 44 66 L 44 67 L 44 68 L 44 69 L 44 70 L 44 71 L 44 72 L 44 73 L 45 74 L 46 75 L 47 75 L 48 76 L 49 77 L 50 77 L 51 77 L 52 78 L 53 79 L 54 79 L 55 80 L 56 80 L 57 81 L 58 82 L 59 82 L 60 82 L 61 82 L 62 82 L 63 83 L 63 84 L 64 85 L 65 85 L 66 86 L 67 87 L 68 87 L 69 87 L 70 87 L 71 87 L 72 88 L 72 89 L 73 90 L 74 90 L 74 89 L 74 88 L 74 87 L 74 86 L 74 85 L 74 84 L 74 83 L 74 82 L 73 81 L 72 81 L 71 80 L 70 80 L 69 79 L 68 79 L 67 78 L 66 78 L 65 77 L 64 77 L 63 76 L 63 75 L 62 74 L 61 74 L 60 73 L 59 72 L 58 72 L 57 72 L 56 72 L 55 72 L 54 71 L 53 71 L 52 70 L 52 69 L 53 68 L 53 67 L 53 66 L 53 65 L 53 64 L 53 63 L 53 62 L 53 61 L 53 60 L 53 59 L 53 58 L 53 57 L 53 56 L 53 55 L 53 54 L 53 53 L 53 52 L 53 51 L 52 51 L 51 50 L 51 49 L 51 48 L 50 48 L 49 47 L 48 47 L 47 46 L 46 46 L 45 45 L 44 45 L 43 45 L 42 45 L 41 45 L 40 44 L 40 43 L 39 42 L 38 42 L 37 41 L 36 40 L 35 40 L 34 40 L 33 39 L 32 38 Z M 107 21 L 107 22 L 108 22 L 109 22 L 110 22 L 111 22 L 112 22 L 113 22 L 114 22 L 115 22 L 115 21 L 114 21 L 113 21 L 112 21 L 111 21 L 110 21 L 109 21 L 108 21 Z M 69 21 L 69 22 L 70 22 L 71 22 L 71 21 L 70 21 Z M 30 10 L 30 11 L 30 12 L 30 13 L 30 14 L 30 15 L 30 16 L 30 17 L 30 18 L 30 19 L 30 20 L 30 21 L 30 22 L 30 23 L 30 24 L 30 25 L 30 26 L 30 27 L 30 28 L 30 29 L 30 30 L 30 31 L 30 32 L 31 32 L 32 32 L 33 33 L 34 33 L 35 34 L 35 35 L 36 36 L 37 37 L 38 37 L 39 38 L 40 38 L 41 39 L 42 39 L 43 39 L 44 40 L 45 40 L 46 41 L 47 41 L 48 42 L 49 42 L 50 42 L 51 42 L 52 43 L 53 43 L 54 44 L 54 45 L 55 45 L 56 46 L 57 46 L 58 47 L 59 47 L 60 48 L 61 49 L 62 49 L 63 50 L 64 50 L 65 50 L 66 51 L 67 52 L 68 53 L 69 53 L 70 53 L 71 54 L 72 55 L 73 55 L 74 56 L 75 57 L 76 57 L 77 57 L 77 56 L 77 55 L 77 54 L 78 53 L 79 53 L 79 52 L 79 51 L 79 50 L 79 49 L 78 49 L 77 49 L 76 48 L 75 48 L 74 47 L 74 46 L 73 45 L 72 44 L 71 44 L 70 43 L 69 43 L 68 43 L 67 43 L 66 43 L 65 42 L 64 42 L 63 41 L 62 41 L 61 40 L 61 39 L 60 38 L 59 38 L 58 37 L 57 36 L 56 36 L 55 35 L 54 35 L 53 34 L 52 34 L 51 34 L 50 34 L 49 34 L 48 33 L 47 33 L 46 32 L 46 31 L 45 30 L 44 29 L 43 29 L 42 28 L 41 28 L 40 27 L 39 26 L 39 25 L 39 24 L 39 23 L 39 22 L 39 21 L 39 20 L 39 19 L 39 18 L 39 17 L 39 16 L 39 15 L 39 14 L 39 13 L 39 12 L 39 11 L 39 10 L 38 10 L 37 10 L 36 10 L 35 10 L 34 10 L 33 10 L 32 10 L 31 10 Z M 149 9 L 148 10 L 147 10 L 146 10 L 145 10 L 144 10 L 144 11 L 144 12 L 144 13 L 144 14 L 144 15 L 144 16 L 144 17 L 144 18 L 144 19 L 144 20 L 144 21 L 144 22 L 144 23 L 144 24 L 144 25 L 144 26 L 144 27 L 143 28 L 142 29 L 141 29 L 140 30 L 139 30 L 138 31 L 137 31 L 136 32 L 135 32 L 134 33 L 133 33 L 132 34 L 132 35 L 131 36 L 130 36 L 129 36 L 128 36 L 127 37 L 126 37 L 125 38 L 124 38 L 123 39 L 122 39 L 121 40 L 121 41 L 120 42 L 119 42 L 118 43 L 117 43 L 116 43 L 115 43 L 114 44 L 113 44 L 112 45 L 111 45 L 110 46 L 109 46 L 108 47 L 108 48 L 107 49 L 106 49 L 105 49 L 105 50 L 105 51 L 105 52 L 105 53 L 105 54 L 105 55 L 105 56 L 105 57 L 106 57 L 107 58 L 108 58 L 109 57 L 110 56 L 111 56 L 112 55 L 113 54 L 114 54 L 115 53 L 115 52 L 116 51 L 117 51 L 118 51 L 119 51 L 120 50 L 121 50 L 122 49 L 123 49 L 124 48 L 124 47 L 125 46 L 126 46 L 127 45 L 128 45 L 129 44 L 130 44 L 131 43 L 132 43 L 133 42 L 134 42 L 135 41 L 136 41 L 137 41 L 138 41 L 139 41 L 140 40 L 141 40 L 142 39 L 143 39 L 144 38 L 145 38 L 146 37 L 147 36 L 148 36 L 149 35 L 150 35 L 151 34 L 151 33 L 152 32 L 153 31 L 154 31 L 154 30 L 154 29 L 154 28 L 154 27 L 154 26 L 154 25 L 154 24 L 154 23 L 154 22 L 154 21 L 154 20 L 154 19 L 154 18 L 154 17 L 154 16 L 154 15 L 154 14 L 154 13 L 154 12 L 154 11 L 154 10 L 153 10 L 152 10 L 151 9 L 150 9 Z M 46 8 L 46 9 L 45 10 L 44 10 L 44 11 L 44 12 L 44 13 L 44 14 L 44 15 L 44 16 L 44 17 L 44 18 L 44 19 L 44 20 L 44 21 L 44 22 L 44 23 L 44 24 L 45 25 L 46 26 L 47 26 L 48 26 L 49 27 L 50 28 L 51 28 L 52 29 L 53 29 L 54 28 L 54 27 L 54 26 L 54 25 L 54 24 L 54 23 L 54 22 L 54 21 L 54 20 L 54 19 L 55 18 L 56 18 L 57 18 L 58 18 L 59 18 L 60 18 L 61 18 L 62 18 L 63 18 L 64 18 L 65 18 L 66 18 L 67 18 L 68 18 L 69 18 L 70 18 L 71 18 L 72 18 L 73 18 L 74 18 L 75 18 L 76 18 L 77 18 L 78 18 L 79 18 L 80 18 L 81 18 L 82 18 L 83 18 L 84 18 L 85 18 L 86 18 L 87 18 L 88 18 L 89 18 L 90 18 L 91 18 L 92 18 L 93 18 L 94 18 L 95 18 L 96 18 L 97 18 L 98 18 L 99 18 L 100 18 L 101 18 L 102 18 L 103 18 L 103 17 L 104 16 L 105 16 L 106 16 L 107 16 L 108 16 L 109 16 L 110 17 L 110 18 L 111 18 L 112 18 L 113 18 L 114 18 L 115 18 L 116 18 L 117 18 L 118 18 L 119 18 L 120 18 L 121 18 L 122 18 L 123 18 L 124 18 L 125 18 L 126 18 L 127 18 L 128 18 L 129 18 L 130 19 L 130 20 L 130 21 L 130 22 L 130 23 L 130 24 L 130 25 L 130 26 L 130 27 L 130 28 L 131 28 L 132 27 L 133 27 L 134 26 L 135 26 L 136 26 L 137 26 L 138 26 L 139 25 L 139 24 L 139 23 L 139 22 L 139 21 L 139 20 L 139 19 L 139 18 L 139 17 L 139 16 L 139 15 L 139 14 L 139 13 L 139 12 L 139 11 L 139 10 L 138 9 L 137 9 L 136 10 L 135 10 L 134 9 L 134 8 L 133 8 L 132 8 L 131 8 L 130 8 L 129 8 L 128 8 L 127 8 L 126 8 L 125 8 L 124 8 L 123 8 L 122 8 L 121 8 L 120 8 L 119 8 L 118 8 L 117 8 L 116 8 L 115 8 L 114 8 L 113 8 L 112 8 L 111 8 L 110 8 L 109 8 L 108 8 L 107 8 L 106 8 L 105 8 L 104 8 L 103 8 L 102 8 L 101 8 L 100 8 L 99 8 L 98 8 L 97 8 L 96 8 L 95 8 L 94 8 L 93 8 L 92 8 L 91 8 L 90 8 L 89 8 L 88 8 L 87 8 L 86 8 L 85 8 L 84 8 L 83 8 L 82 8 L 81 8 L 80 8 L 79 8 L 78 8 L 78 9 L 77 10 L 76 10 L 75 10 L 74 10 L 73 10 L 72 10 L 71 10 L 70 10 L 69 10 L 68 9 L 68 8 L 67 8 L 66 8 L 65 8 L 64 8 L 63 8 L 62 8 L 61 8 L 60 8 L 60 9 L 59 10 L 58 10 L 57 10 L 56 10 L 55 10 L 54 9 L 54 8 L 53 8 L 52 8 L 51 8 L 50 8 L 49 8 L 48 8 L 47 8 Z" fill="#FFFFFF"/>
<path d="M 92 46 L 91 47 L 90 47 L 89 48 L 88 48 L 87 49 L 86 49 L 85 50 L 85 51 L 84 52 L 84 53 L 84 54 L 84 55 L 84 56 L 84 57 L 84 58 L 84 59 L 84 60 L 84 61 L 84 62 L 85 63 L 86 64 L 87 64 L 88 65 L 89 65 L 90 66 L 91 67 L 92 67 L 93 67 L 94 66 L 95 65 L 96 65 L 97 64 L 98 64 L 99 63 L 100 62 L 100 61 L 100 60 L 100 59 L 100 58 L 100 57 L 100 56 L 100 55 L 100 54 L 99 53 L 99 52 L 99 51 L 99 50 L 98 49 L 97 49 L 96 48 L 95 48 L 94 47 L 93 46 Z M 96 23 L 96 24 L 96 25 L 96 26 L 96 27 L 96 28 L 96 29 L 96 30 L 96 31 L 96 32 L 96 33 L 96 34 L 96 35 L 96 36 L 96 37 L 96 38 L 96 39 L 96 40 L 97 41 L 98 42 L 99 43 L 100 43 L 101 43 L 102 43 L 103 43 L 104 42 L 105 41 L 106 41 L 107 40 L 108 40 L 109 39 L 110 39 L 111 38 L 112 37 L 113 37 L 114 36 L 115 36 L 116 35 L 117 35 L 118 34 L 119 34 L 120 33 L 121 33 L 122 32 L 123 31 L 124 31 L 124 30 L 124 29 L 124 28 L 124 27 L 124 26 L 124 25 L 124 24 L 123 23 L 122 23 L 121 23 L 120 23 L 119 23 L 118 23 L 117 23 L 116 23 L 115 23 L 114 23 L 113 23 L 112 23 L 111 23 L 110 23 L 109 23 L 108 23 L 107 23 L 106 23 L 105 23 L 104 23 L 103 23 L 102 23 L 101 23 L 100 23 L 99 23 L 98 23 L 97 23 Z M 60 23 L 60 24 L 60 25 L 60 26 L 60 27 L 60 28 L 60 29 L 60 30 L 60 31 L 61 31 L 62 32 L 63 33 L 64 33 L 65 34 L 66 34 L 67 35 L 68 35 L 69 36 L 70 36 L 71 37 L 72 37 L 73 38 L 74 38 L 75 39 L 76 39 L 77 40 L 78 41 L 79 41 L 80 42 L 81 42 L 82 43 L 83 43 L 84 43 L 85 43 L 86 43 L 87 42 L 88 41 L 88 40 L 88 39 L 88 38 L 88 37 L 88 36 L 88 35 L 88 34 L 88 33 L 88 32 L 88 31 L 88 30 L 88 29 L 88 28 L 88 27 L 88 26 L 88 25 L 88 24 L 88 23 L 87 23 L 86 23 L 85 23 L 84 23 L 83 23 L 82 23 L 81 23 L 80 23 L 79 23 L 78 23 L 77 23 L 76 23 L 75 23 L 74 23 L 73 23 L 72 23 L 71 23 L 70 23 L 69 23 L 68 23 L 67 23 L 66 23 L 65 23 L 64 23 L 63 23 L 62 23 L 61 23 Z" fill="#2f7f5f"/>
</g></svg>