<svg xmlns="http://www.w3.org/2000/svg" width="900" height="220" viewBox="0 0 900 220" role="img" aria-label="Oddfellows Forge">
  <defs>
    <linearGradient id="g" x1="0" y1="0" x2="1" y2="1">
      <stop offset="0%" stop-color="#34d399"/>
      <stop offset="100%" stop-color="#16a34a"/>
    </linearGradient>
  </defs>
  <rect x="20" y="20" width="180" height="180" rx="36" fill="#0f172a"/>
  <path d="M65 62h70c26 0 42 12 42 34s-16 34-42 34H97v28H65V62zm32 28v32h38c7 0 10-3 10-10s-3-10-10-10H97z" fill="url(#g)"/>
  <path d="M236 97h24l29 74 29-74h24l-42 102h-22l-42-102z" fill="#0f172a" opacity="0"/>
  <text x="235" y="112" fill="#0f172a" font-family="Inter,Segoe UI,Roboto,Arial,sans-serif" font-weight="800" font-size="64" letter-spacing="0.5">Oddfellows</text>
  <text x="238" y="172" fill="#15803d" font-family="Inter,Segoe UI,Roboto,Arial,sans-serif" font-weight="700" font-size="52" letter-spacing="1.5">FORGE</text>
</svg>